<?xml version="1.0" encoding="utf-8"?>
<!-- Generator: Adobe Illustrator 26.0.1, SVG Export Plug-In . SVG Version: 6.00 Build 0)  -->
<svg version="1.1" id="Layer_1" xmlns="http://www.w3.org/2000/svg" xmlns:xlink="http://www.w3.org/1999/xlink" x="0px" y="0px"
	 viewBox="0 0 64 64" style="enable-background:new 0 0 64 64;" xml:space="preserve">
<style type="text/css">
	.st0{fill:#FFFFFF;}
</style>
<g>
	<circle class="st0" cx="32" cy="32" r="32"/>
</g>
<path d="M10,17.3c1.4,0,2.4,1.1,2.4,2.4v24.4c0,1.4-1.1,2.4-2.4,2.4s-2.4-1.1-2.4-2.4V19.8C7.6,18.4,8.7,17.3,10,17.3z M26.4,22.9
	c1,1,1,2.5,0,3.5l-3.2,3.2h17.5l-3.2-3.2c-1-1-1-2.5,0-3.5s2.5-1,3.5,0l7.3,7.3c1,1,1,2.5,0,3.5l-7.3,7.3c-1,1-2.5,1-3.5,0
	c-1-1-1-2.5,0-3.5l3.2-3.2H23.2l3.2,3.2c1,1,1,2.5,0,3.5c-1,1-2.5,1-3.5,0l-7.3-7.3c-1-1-1-2.5,0-3.5l7.3-7.3
	C23.9,22,25.4,22,26.4,22.9L26.4,22.9z M56.4,19.8v24.4c0,1.4-1.1,2.4-2.4,2.4c-1.4,0-2.4-1.1-2.4-2.4V19.8c0-1.4,1.1-2.4,2.4-2.4
	C55.3,17.3,56.4,18.4,56.4,19.8z"/>
</svg>
