<?xml version="1.0" encoding="utf-8"?>
<!-- Generator: Adobe Illustrator 26.0.1, SVG Export Plug-In . SVG Version: 6.00 Build 0)  -->
<svg version="1.1" id="Layer_1" xmlns="http://www.w3.org/2000/svg" xmlns:xlink="http://www.w3.org/1999/xlink" x="0px" y="0px"
	 viewBox="0 0 500 500" style="enable-background:new 0 0 500 500;" xml:space="preserve">
<style type="text/css">
	.st0{fill:#FFFFFF;}
	.st1{fill:#231F20;stroke:#231F20;stroke-width:2;stroke-miterlimit:10;}
	.st2{fill:#231F20;}
	.st3{fill:#FFFFFF;stroke:#231F20;stroke-width:2;stroke-miterlimit:10;}
</style>
<polygon class="st0" points="391,261 414.5,261 426,273 427.7,261 450.5,261 451,395 391,395 "/>
<polygon class="st0" points="368,306 349,305 350,349 368,348.1 372,376 358.9,395 346.1,398 325,393 316,381 314,370 315,284 
	317,273 323,264 333.4,259.3 341.7,258 347.5,258 354,260 360,263 365,267 370,278 "/>
<polygon class="st0" points="293,273 294,381 276,397 254,396 243,390 235,374 235,283.1 239,271 246,263 253.1,259.3 262.1,258 
	268.5,258 278.7,261 285,265 "/>
<polygon class="st0" points="153,261 176.5,261 189,272 189.7,261 212.5,261 213,395 153,395 "/>
<path class="st0" d="M112,305v44.4l19-1.4l3,21l-8.3,24.8c0,0-9.7,4.2-10.7,4.2s-17-1-17-1l-9-4l-8-8l-4-12v-90.7l4-12.3l6-7
	l9.7-3.7l7.5-1.3h5.5l5.9,1.3l4.4,1.7l5,4l5,6l2,13l-1,24L112,305z"/>
<path class="st0" d="M37,306h20.6L55,273c0,0-5-15-24-15S7,270,7,270l-3,12v15.9L8,314l10,15l12,16l3,8v5l-10-8l-17-2l-2,14.1L5,377
	l4,11l7,7l19,2l18-8l4.6-17.8L56,341L37,306z"/>
<polygon class="st0" points="233.3,79.7 278.2,79.7 278.2,96.1 254.5,96.1 254.5,135.4 274.2,135.4 274.2,152.2 254.5,152.2 
	254.5,195.3 278.4,195.3 278.4,211.7 233.3,211.7 "/>
<polygon class="st0" points="154.7,79.7 154.7,212.1 218,212.1 196,128 214.6,77.6 191.8,79.7 186.4,89.9 178,77.6 "/>
<polygon class="st0" points="105.3,77.6 105.3,213.8 128.5,212.1 128.5,79.7 "/>
<polygon class="st0" points="4.9,213.8 86.5,213.8 83.3,77.6 56.9,79.7 48.9,122.3 35.4,82.9 32,79.7 7,79.7 "/>
<g>
	<path class="st1" d="M95.5,226H71.3l-7.9-7.7l-1.2,7.7H47.9l-9.4-8.9v8.9H17.3L4.9,213.8V77.6h28.8l12.2,12.6l3.1,24.5l6.1-37h28.1
		l12.2,12.2V226z M81.2,212.1V79.7H56.9l-13.6,85.2L32,79.7H7v132.4h17.1v-74.4l12.4,74.4h12.6L61,136.8v75.3H81.2z"/>
	<path class="st1" d="M142.9,226h-25.2l-12.4-12.2V77.6h25.3L142.9,90V226z M128.5,212.1V79.7h-21.1v132.4H128.5z"/>
	<path class="st1" d="M229.8,226.2h-27.8l-11.9-12.1v12.1h-25.3l-12.2-12.4V77.6H178l8.7,9.6l3.3-9.6h24.6l11.2,11.5l-17.3,51
		L229.8,226.2z M213.9,212.1l-20.3-84.5l18-47.9h-19.9l-15.5,43.7h-0.3V79.7h-21.1v132.4h21.1v-45.4l4.7-12.2l11.5,57.6H213.9z"/>
	<path class="st1" d="M292.9,226h-49.6l-12.1-12.2V77.6h49.1L292.5,90v20.4h-23.8v22.9h7.5l12.2,12.6v20.6h-19.7v26.7h11.7
		l12.4,12.4V226z M278.4,211.7v-16.4h-23.9v-43.1h19.7v-16.8h-19.7V96.1h23.8V79.7h-44.9v132H278.4z"/>
</g>
<g>
	<g>
		<path class="st1" d="M70,378c0,20.3-11.4,31.8-28.6,31.8c-10.8,0-22-3.8-33.7-22.5C4.4,382.1,3,374.9,3,366.2
			c0-8.2,1-16.2,1.6-19.9l19.6,2.1l8.4,8c-1.4-7.7-6.3-15.9-13.8-25C7.3,317.6,2.6,306.6,2.6,290.9v-2.1c0-17.8,7-31.8,27.8-31.8
			c6.3,0,11.2,1,14.8,3.5c16.8,11.2,23.2,21,23.2,39.3c0,7.3-0.5,13.1-1.2,18.3l-17.6-1.6c0,0,4.9,8,8,13.6
			c8.2,14.3,12.4,30.6,12.4,45.2V378z M56.2,363.2c0-16.8-7.5-32.7-19-47.3c-8.4-10.7-11.4-18.7-11.4-26.7v-2.8
			c0-7.7,1.2-11.5,6.1-11.5c4.9,0,6.5,4.2,6.5,15.5c0,7-0.3,8.2-0.7,11.7l15.5,1.7c0.5-4.2,1-8.7,1-15.4c0-18.2-5.8-29.3-23.9-29.3
			c-19,0-25.7,12.6-25.7,29.7v2.1c0,15,4.5,25.8,15.7,39.3c11.5,14,14.3,23.2,14.3,33.5v3.7c0,8.2-2.1,12.2-7,12.2
			c-5.4,0-7.2-4.2-7.2-15.4c0-4.5,0.5-10,1-14l-15.4-1.7c-0.5,3.8-1.2,10.3-1.2,17.6c0,19,7,29.3,24.1,29.3
			c16.4,0,27.1-8.7,27.1-29.7V363.2z"/>
		<path class="st1" d="M117.5,409.8c-14.1,0-19.2-4.2-33.9-19.7c-4.7-5.1-7.5-11.7-7.5-22v-80.9c0-19.9,11.2-30.2,28.8-30.2
			c7,0,13.3,1.4,18,4.9c14.5,10.8,21.8,18.9,21.8,38.1c0,7.3-0.9,14.5-1.6,19.2l-19.9-1.2l-9.6-10.1V348l17.5-1.2l12.2,12.2
			c0.3,2.8,1.4,11.9,1.4,19.6C144.8,400.2,133.3,409.8,117.5,409.8z M129.4,348.9l-15.7,1.2c0.5,4,1,9.3,1,13.4
			c0,12.6-2.6,16.4-7.5,16.4c-6.1,0-7.9-3.7-7.9-10v-85.6c0-7.2,2.1-9.6,7.2-9.6c5.2,0,8.2,2.8,8.2,15.4c0,4.7-0.5,9.8-1,13.4
			l15.5,1.2c0.5-4,1.2-10.7,1.2-17.3c0-23.4-10.7-28.5-25.5-28.5c-16.4,0-26.7,9.3-26.7,28.1v80.9c0,19,10.3,27.4,27.1,27.4
			c14.7,0,25.3-5.2,25.3-29.2C130.6,358.5,129.9,352.7,129.4,348.9z"/>
		<path class="st1" d="M225.8,407.7H201l-11.5-11.4v11.4h-25l-12.4-12.2V259.3h25.2l11.2,12.1v-12.1h25.1l12.2,12.6V407.7z
			 M211.5,393.8V261.4h-21v56.2h-15.4v-56.2h-21v132h21v-59h15.4v59.4H211.5z"/>
		<path class="st1" d="M306.7,377.5c0,22.7-13.8,32.3-29.9,32.3c-12.4,0-18.5-2.4-35.5-21.1c-4.5-4.9-7.2-12.1-7.2-21.8v-79.1
			c0-22.5,14.1-30.7,30.4-30.7c6.6,0,12.9,1.4,17.8,4.5c17.8,11.2,24.3,23.8,24.3,38.4V377.5z M292.2,287.8
			c0-21.3-12.2-28.6-27.6-28.6c-15.4,0-28.3,7.5-28.3,28.6v79.1c0,20.8,12.7,28.6,28.3,28.6c15.2,0,27.6-7.3,27.6-28.6V287.8z
			 M271.2,371.4c0,5.4-2.4,8.2-6.6,8.2c-4.5,0-7.2-2.8-7.2-8.4v-88c0-5.8,2.8-8.4,7-8.4c3.5,0,6.8,2.6,6.8,8.4V371.4z"/>
		<path class="st1" d="M355.1,409.8c-14.1,0-19.2-4.2-33.9-19.7c-4.7-5.1-7.5-11.7-7.5-22v-80.9c0-19.9,11.2-30.2,28.8-30.2
			c7,0,13.3,1.4,18,4.9c14.5,10.8,21.8,18.9,21.8,38.1c0,7.3-0.9,14.5-1.6,19.2l-19.9-1.2l-9.6-10.1V348l17.5-1.2l12.2,12.2
			c0.3,2.8,1.4,11.9,1.4,19.6C382.3,400.2,370.8,409.8,355.1,409.8z M366.9,348.9l-15.7,1.2c0.5,4,1,9.3,1,13.4
			c0,12.6-2.6,16.4-7.5,16.4c-6.1,0-7.9-3.7-7.9-10v-85.6c0-7.2,2.1-9.6,7.2-9.6c5.2,0,8.2,2.8,8.2,15.4c0,4.7-0.5,9.8-1,13.4
			l15.5,1.2c0.5-4,1.2-10.7,1.2-17.3c0-23.4-10.7-28.5-25.5-28.5c-16.4,0-26.7,9.3-26.7,28.1v80.9c0,19,10.3,27.4,27.1,27.4
			c14.7,0,25.3-5.2,25.3-29.2C368.2,358.5,367.5,352.7,366.9,348.9z"/>
		<path class="st1" d="M463.3,407.7h-24.8L427,396.4v11.4h-25l-12.4-12.2V259.3h25.1l11.2,12.1v-12.1h25.2l12.2,12.6V407.7z
			 M449,393.8V261.4h-21v56.2h-15.4v-56.2h-21v132h21v-59h15.4v59.4H449z"/>
	</g>
</g>
<g>
	<path class="st2" d="M402.9,80.6c0.1,0,0.2,0.1,0.3,0.2c0.2,0.2,0.3,0.5,0.3,0.7c0.3-0.1,0.6,0,0.8,0.1c0.2-0.2,0.5-0.3,0.8-0.3
		c0.3,0,0.5,0.1,0.7,0.3c-0.1-0.2-0.2-0.4-0.4-0.5c0,0,0,0,0,0c0.1-0.4-0.1-0.8-0.5-0.9c-0.1,0-0.3,0-0.4,0c-0.1-0.4-0.3-0.8-0.8-1
		c-0.4-0.1-0.8,0.1-1.1,0.3c-0.1,0.1-0.2,0.2-0.3,0.2C402.7,80,402.8,80.3,402.9,80.6z"/>
	<path class="st2" d="M406.1,82c0.1-0.1,0.2-0.1,0.2-0.2c-0.1,0-0.2,0-0.3,0.1C406.1,81.9,406.1,81.9,406.1,82z"/>
	<path class="st2" d="M399.9,172.1c0.8-0.9,1.7-1.9,2.3-3.1c-0.5,0.2-1.3,0.1-1.3-0.6c-0.4,0.1-0.9,0.1-1-0.4c0-0.1,0-0.3,0-0.4
		c-0.2,0.1-0.5,0.1-0.7-0.1c-0.2-0.2-0.3-0.4-0.3-0.6c0,0-0.1,0-0.1,0c-0.2,0-0.4,0-0.7-0.1c0,0.2,0.1,0.4,0.1,0.7c0.4,2,1,4,0.3,6
		C398.9,173.1,399.4,172.6,399.9,172.1z"/>
	<path class="st2" d="M430.4,92.7C430.4,92.7,430.4,92.7,430.4,92.7c0.1,0,0.1-0.1,0.2-0.1c-0.1,0-0.2,0-0.3,0
		C430.3,92.6,430.3,92.7,430.4,92.7z"/>
	<path class="st2" d="M407.1,81.7c0.4,0.1,0.7,0.4,0.8,0.8c0.2-0.2,0.4-0.2,0.6-0.2c0-0.3,0.2-0.6,0.4-0.8c0,0,0.1,0,0.1,0
		c-0.1-0.1-0.2-0.1-0.3-0.2c-0.3-0.1-0.5,0-0.6,0.1c-0.2-0.2-0.5-0.4-0.8-0.2c-0.2,0.1-0.5,0.3-0.6,0.5
		C406.8,81.6,407,81.6,407.1,81.7z"/>
	<path class="st2" d="M313.7,145.7c-0.1-0.1-0.3-0.2-0.3-0.4c-0.2,0.2-0.6,0.4-0.9,0.4c-0.1,0.1-0.2,0.3-0.3,0.6c0,0,0,0.1,0,0.1
		c0,0,0.1,0,0.1-0.1c0.4-0.1,0.6,0,0.7,0.3c0.1-0.1,0.2-0.1,0.2-0.1c0.3-0.1,0.5,0,0.7,0.3c0.1-0.2,0.3-0.3,0.5-0.2
		c0.1,0,0.1,0,0.2,0.1c0.1-0.3,0.3-0.5,0.6-0.6c0.1-0.1,0.3-0.1,0.4,0c0,0,0-0.1,0-0.1c-0.3,0.1-0.7,0.1-0.9-0.2
		C314.4,145.8,314,145.9,313.7,145.7z"/>
	<path class="st2" d="M413.2,83.4c0.1,0.3,0,0.5-0.2,0.7c0.3,0.1,0.6,0.4,0.6,0.7c0,0.2,0,0.4-0.1,0.6c0.4-0.1,0.8,0.1,1.1,0.4
		c0.3,0.4,0.2,0.8,0,1.1c0.4,0.1,0.8,0.4,0.9,0.8c0.4-0.1,0.8,0.1,1,0.3c0.2,0.2,0.2,0.5,0.2,0.7c0.3,0,0.6,0.1,0.8,0.3
		c0.2,0.2,0.3,0.5,0.3,0.7c0.4-0.2,0.9,0,1.2,0.5c0.1,0.3,0.1,0.6,0,0.9c-0.1,0.1-0.2,0.2-0.3,0.3c0,0.1,0.1,0.1,0.1,0.2
		c0,0.1,0,0.3-0.1,0.4c0.1,0,0.2,0.1,0.3,0.3c0.1,0.1,0.1,0.3,0.1,0.5c0.3-0.2,0.7-0.3,1.1,0c0.2,0.2,0.3,0.4,0.3,0.6
		c0.4-0.1,0.8-0.1,1.1,0.1c0.1,0.1,0.2,0.2,0.2,0.3c0.2-0.2,0.6-0.2,0.9-0.1c0.3,0.1,0.5,0.4,0.6,0.6c0.2-0.2,0.4-0.2,0.7-0.1
		c0.2,0.1,0.4,0.2,0.5,0.3c0.1-0.2,0.4-0.4,0.6-0.4c0.3-0.1,0.6,0.1,0.7,0.4c0.1,0,0.1,0,0.2,0c-0.2-0.6,0.2-1.2,0.8-1.5
		c-0.1-0.4,0-0.8,0.5-1c0.4-0.1,0.8,0,1,0.2c0.3-0.3,0.7-0.4,1-0.3c0.2,0.1,0.4,0.3,0.4,0.5c0.1-0.1,0.3-0.1,0.4,0
		c-0.1-0.4-0.4-0.6-0.8-0.7c-0.4-0.1-0.8,0-1.1,0.2c-0.1-0.3-0.3-0.5-0.6-0.6c0.1-0.2,0.2-0.5,0.2-0.7c0-0.3-0.2-0.5-0.4-0.6
		c0.2-0.3,0.2-0.7-0.1-1c-0.2-0.2-0.5-0.3-0.8-0.2c0-0.4-0.4-0.7-0.9-0.8c-0.4-0.1-0.8,0-1.1,0.2c-0.1-0.3-0.3-0.5-0.6-0.6
		c0.1-0.2,0.2-0.5,0.2-0.7c0-0.3-0.2-0.5-0.4-0.6c0.2-0.3,0.2-0.7-0.1-1c-0.2-0.2-0.5-0.3-0.8-0.2c0-0.4-0.4-0.7-0.9-0.8
		c-0.5-0.1-1.1,0.1-1.3,0.5c0,0-0.1,0-0.1-0.1c-0.2-0.1-0.4,0-0.6,0.1c-0.2,0.2-0.4,0.5-0.4,0.8c-0.2,0-0.4,0.1-0.6,0.2
		c-0.1-0.4-0.4-0.7-0.8-0.8c-0.4-0.1-0.8,0-1,0.3c-0.2-0.4-0.5-0.6-1-0.6c-0.2,0-0.4,0.1-0.6,0.2c-0.1-0.3-0.4-0.6-0.8-0.6
		c-0.1,0-0.3,0-0.4,0c0,0-0.1-0.1-0.1-0.1c-0.1-0.1-0.2-0.2-0.3-0.2c-0.1-0.4-0.4-0.8-0.7-1C413.1,83.3,413.2,83.3,413.2,83.4z"/>
	<path class="st2" d="M340.7,176.3c0.2,0.1,0.4,0.1,0.5,0.1c0,0.1-0.1,0.2-0.1,0.2c0,0.2,0,0.4,0.2,0.5c0.1,0.1,0.1,0.1,0.2,0.1
		c-0.3,0.2-0.6,0.5-0.4,0.9c0.2,0.4,0.6,0.4,1,0.3c0,0.4,0.3,0.7,0.7,0.8c0.4,0.1,0.7-0.2,0.8-0.6c0,0,0,0,0,0
		c0.2,0.2,0.5,0.2,0.8,0.1c0,0.1,0,0.2,0,0.3c0,0.2,0.1,0.3,0.1,0.4c0.1,0.2,0.3,0.4,0.6,0.4c0.4,0,0.7-0.2,1-0.5
		c0.2,0,0.3,0,0.5-0.1c0,0,0-0.1,0-0.1c-0.4,0.2-0.9,0.4-1.4,0.2c-0.5-0.2-0.7-0.8-0.7-1.3c0-1.1,0.6-1.9,1.5-2c0,0,0-0.1-0.1-0.1
		c-0.1-0.3-0.1-0.7,0.1-0.9c-0.7,0-1.6,0-2-0.6c-0.3-0.5-0.1-1.1,0.2-1.5c0.3-0.4,0.9-1,1.4-1.1c-0.1-0.2-0.2-0.4-0.2-0.7
		c0-0.3,0.1-0.5,0.3-0.7c-0.3-0.1-0.6-0.3-0.7-0.7c-0.1-0.4,0-0.7,0.3-1c0.3-0.3,0.7-0.6,1.2-0.7c0,0-0.1-0.1-0.1-0.2
		c-0.1-0.4,0.1-0.7,0.3-1c0.1-0.1,0.2-0.2,0.3-0.3c-0.2,0-0.4-0.1-0.6-0.3c-0.2-0.2-0.2-0.5-0.2-0.8c-0.6,0.2-1.1,0.1-1.2-0.7
		c0-0.1,0-0.3,0-0.5c-0.6,0.5-1.5,1-2.2,0.5c-0.2-0.1-0.3-0.3-0.4-0.5c-0.3,0.1-0.6,0.1-0.9,0c-0.1,0.1-0.2,0.2-0.3,0.2
		c-0.3,0.1-0.6-0.1-0.8-0.3c-0.1,0.3-0.4,0.5-0.7,0.6c-0.1,0-0.3,0.1-0.4,0.1c0,0.2,0.1,0.4,0,0.6c-0.1,0.2-0.2,0.4-0.4,0.5
		c-0.3,0.1-0.5,0.2-0.8,0.2c0.1,0.4-0.1,0.8-0.4,1c-0.4,0.3-0.9,0.3-1.3-0.1c-0.1,0.1-0.2,0.1-0.3,0.2c0,0-0.1,0-0.1,0
		c0.1,0.1,0.2,0.3,0.1,0.5c0,0.3-0.2,0.5-0.4,0.6c-0.2,0.1-0.4,0.2-0.6,0.2c-0.2,0.3-0.6,0.5-1,0.5c-0.2,0-0.5-0.2-0.6-0.4
		c-0.1-0.1-0.1-0.3-0.1-0.4c0-0.1,0-0.2,0-0.3c-0.3,0.1-0.5,0.1-0.8-0.1c0,0,0,0,0,0c-0.1,0.4-0.4,0.7-0.8,0.6
		c-0.4-0.1-0.6-0.4-0.7-0.8c-0.4,0.1-0.8,0.1-1-0.3c-0.2-0.4,0.1-0.7,0.4-0.9c-0.1,0-0.1-0.1-0.2-0.1c-0.1-0.1-0.2-0.3-0.2-0.5
		c0-0.1,0.1-0.2,0.1-0.2c-0.2,0-0.4,0-0.5-0.1c-0.4-0.2-0.5-0.5-0.5-0.9c0,0-0.1-0.1-0.1-0.1c-0.1-0.2-0.2-0.4-0.2-0.6
		c-0.3,0-0.5-0.1-0.7-0.3c0,0-0.1-0.1-0.1-0.1c-0.4,0.1-0.8,0-1-0.3c-0.2-0.2-0.2-0.4-0.2-0.6c-0.1,0-0.3-0.1-0.4-0.2c0,0,0,0,0,0
		c0,0.3-0.2,0.6-0.4,0.7c-0.2,0.2-0.4,0.2-0.6,0.1c-0.1,0.2-0.2,0.4-0.3,0.6c-0.5,0.5-1.1,0.1-1.2-0.5c-0.3,0.2-0.8,0.3-1.1,0
		c-0.3-0.2-0.4-0.6-0.3-0.9c0,0,0,0-0.1,0c-0.2,0.5-0.8,1-1.3,0.9c-0.2,0.3-0.4,0.5-0.7,0.5c0,0.1,0,0.1,0,0.2
		c-0.1,0.3-0.4,0.5-0.7,0.5c-0.2,0-0.4,0.1-0.5,0c-0.1,0.1-0.1,0.1-0.2,0.2c-0.3,0.5,0.1,0.9,0.5,1.1c-0.2,0.2-0.4,0.5-0.3,0.8
		c0.1,0.4,0.6,0.5,0.9,0.4c0,0.1,0.1,0.3,0.2,0.4c0.1,0.1,0.2,0.1,0.3,0.1c0,0,0,0,0.1,0c0.1,0.1,0.3,0,0.4,0c0,0.3,0.1,0.6,0.4,0.7
		c0.3,0.3,0.8,0,1-0.2c0,0,0,0,0,0c0.1,0.1,0.2,0.1,0.3,0.1c-0.1,0.1-0.1,0.1-0.2,0.2c-0.3,0.5,0.1,0.9,0.5,1.1
		c-0.2,0.2-0.4,0.5-0.3,0.8c0.1,0.4,0.6,0.5,0.9,0.4c0,0.1,0.1,0.3,0.2,0.4c0.1,0.1,0.2,0.1,0.3,0.1c0,0,0,0,0.1,0
		c0.1,0.1,0.3,0,0.4,0c0,0.3,0.1,0.6,0.4,0.7c0.3,0.3,0.8,0,1-0.2c0,0,0,0,0,0c0.1,0.1,0.2,0.1,0.3,0.1c0.4,0.2,0.8,0.1,1.1-0.1
		c0,0,0,0,0,0c0.1,0.1,0.2,0.2,0.4,0.2c0.4,0.1,0.7-0.1,0.8-0.4c0,0,0.1,0.1,0.2,0.1c-0.2,0.2-0.3,0.5-0.3,0.7
		c-0.4,0.2-0.9,0.4-0.8,1c0,0.1,0.1,0.2,0.1,0.3c-0.1,0-0.2,0.1-0.2,0.2c-0.2,0.2-0.2,0.4-0.2,0.7c0,0.2,0.2,0.4,0.4,0.5
		c0.1,0.1,0.3,0,0.4,0c0,0.3,0.1,0.6,0.4,0.7c0.3,0.3,0.8,0,1-0.2c0,0,0,0,0,0c0.2,0.1,0.6,0.1,0.8,0c0.3-0.1,0.6-0.3,0.7-0.5
		c0-0.1,0-0.1,0-0.2c0.3,0,0.5-0.2,0.7-0.5c0.4,0.1,1.1-0.4,1.3-0.9c0,0,0,0,0.1,0c-0.1,0.3,0,0.6,0.3,0.9c0.4,0.3,0.8,0.3,1.1,0
		c0,0.1,0.1,0.2,0.1,0.3c0.1,0.2,0.2,0.3,0.4,0.4c0.1,0.1,0.3,0,0.4,0c0,0.3,0.1,0.6,0.4,0.7c0.3,0.3,0.8,0,1-0.2c0,0,0,0,0,0
		c0.2,0.1,0.6,0.1,0.8,0c0.2,0,0.3-0.1,0.4-0.2c0.1,0.2,0.3,0.4,0.6,0.4c0.4,0.1,0.7-0.2,0.8-0.5c0,0.1,0.1,0.2,0.1,0.2
		c0,0,0.1,0.1,0.1,0.1C340.2,175.8,340.3,176.1,340.7,176.3z"/>
	<path class="st2" d="M462.7,222.4c-0.1,0-0.1,0-0.2,0c-0.5-0.4-1-0.7-1.6-0.9c-0.9-0.3-1.9-0.3-2.9-0.5c-0.9-0.2-1.8-0.6-2.6-0.9
		c-1-0.3-2.1-0.4-3.2-0.5c-2.3-0.2-4.5,0-6.8,0c0,0-0.1,0-0.1,0c-0.1,0-0.3,0-0.4,0c-0.7-0.1-1.4-0.1-2-0.1c-0.3,0-0.5-0.1-0.8-0.1
		c-0.4-0.1-0.8-0.2-1.1-0.3c3.5,0,7,0,10.5,0c0.1,0.1,0.1,0.1,0.2,0.2c0.1,0.1,0.3,0,0.3-0.2c2.3,0,4.6,0,6.8,0
		c0.1,0.1,0.1,0.1,0.2,0.2c0.2,0.2,0.4-0.1,0.3-0.2c0.1-0.1,0-0.3-0.1-0.3c-0.1,0-0.1,0-0.2,0c-0.5-0.4-1-0.7-1.6-0.9
		c-0.9-0.3-1.9-0.3-2.9-0.5c-0.9-0.2-1.8-0.6-2.6-0.9c-1-0.3-2.1-0.4-3.2-0.5c-2.3-0.2-4.5,0-6.8,0c0,0-0.1,0-0.1,0
		c-0.1,0-0.3,0-0.4,0c-0.7-0.1-1.4-0.1-2-0.1c-0.3,0-0.5-0.1-0.8-0.1c-0.4-0.1-0.8-0.2-1.1-0.3c3.5,0,7,0,10.5,0
		c0.1,0.1,0.1,0.1,0.2,0.2c0.1,0.1,0.3,0,0.3-0.2c2.3,0,4.6,0,6.8,0c0.1,0.1,0.1,0.1,0.2,0.2c0.2,0.2,0.4-0.1,0.3-0.2
		c0.1-0.1,0-0.3-0.1-0.3c-0.1,0-0.1,0-0.2,0c-0.5-0.4-1-0.7-1.6-0.9c-0.9-0.3-1.9-0.3-2.9-0.5c-0.9-0.2-1.8-0.6-2.6-0.9
		c-1-0.3-2.1-0.4-3.2-0.5c-2.3-0.2-4.5,0-6.8,0c0,0-0.1,0-0.1,0c-0.1,0-0.3,0-0.4,0c-0.7-0.1-1.4-0.1-2-0.1c-0.3,0-0.5-0.1-0.8-0.1
		c-0.4-0.1-0.8-0.2-1.1-0.3c-12,0-23.9,0-35.9,0c-12.6,0-25.2,0-37.8,0c-2.7,0.5-5.4,1.1-8,1.6c-1.6,0.3-3.3,0.5-4.9,0.6
		c-1,0.1-2.3,0.2-3.1,0.9c-0.1,0.1-0.1,0.1,0,0.2c0,0.1,0,0.3,0.2,0.3c2.4,0,4.9,0,7.3,0c4.1,0,8.2,0,12.3,0c-2.7,0.5-5.4,1.1-8,1.6
		c-1.6,0.3-3.3,0.5-4.9,0.6c-1,0.1-2.3,0.2-3.1,0.9c-0.1,0.1-0.1,0.1,0,0.2c0,0.1,0,0.3,0.2,0.3c2.4,0,4.9,0,7.3,0
		c4.1,0,8.2,0,12.3,0c-2.7,0.5-5.4,1.1-8,1.6c-1.6,0.3-3.3,0.5-4.9,0.6c-1,0.1-2.3,0.2-3.1,0.9c-0.1,0.1-0.1,0.1,0,0.2
		c0,0.1,0,0.3,0.2,0.3c2.4,0,4.9,0,7.3,0c16.7,0,33.4,0,50.1,0c2.4,0,4.9,0,7.3,0c13,0,26,0,39,0c0.1,0.1,0.1,0.1,0.2,0.2
		c0.1,0.1,0.3,0,0.3-0.2c2.3,0,4.6,0,6.8,0c0.1,0.1,0.1,0.1,0.2,0.2c0.2,0.2,0.4-0.1,0.3-0.2C462.9,222.6,462.9,222.4,462.7,222.4z"
		/>
	<path class="st2" d="M499.8,162.9c-0.1-0.1-0.3-0.2-0.5-0.1c0.1-0.2,0-0.4-0.1-0.6c-0.1-0.2-0.4-0.4-0.6-0.5c0-0.1,0-0.1,0-0.2
		c0-0.4-0.4-0.7-0.8-0.8c0,0,0.1-0.1,0.1-0.2c0.2-0.3,0-0.6-0.2-0.8c0.1-0.1,0.3-0.3,0.3-0.5c0.1-0.4-0.2-0.7-0.5-0.8
		c0.1-0.1,0.2-0.3,0.1-0.5c-0.1-0.2-0.3-0.3-0.5-0.3c0.1-0.1,0.1-0.3,0.1-0.4c0-0.3-0.2-0.5-0.5-0.6c-0.3-0.1-0.6-0.1-0.9,0
		c0-0.1-0.1-0.3-0.1-0.4c-0.1-0.2-0.3-0.3-0.5-0.3c0-0.2,0-0.3-0.1-0.5c-0.1-0.2-0.3-0.3-0.5-0.3c0.1-0.5,0-1-0.5-1.2
		c-0.2-0.1-0.5,0-0.7,0c0.1-0.1,0.1-0.3,0.1-0.4c0-0.3-0.2-0.5-0.5-0.6c-0.3-0.1-0.6-0.1-0.9,0c0-0.1-0.1-0.3-0.1-0.4
		c-0.1-0.2-0.3-0.3-0.5-0.3c0-0.2,0-0.3-0.1-0.5c-0.1-0.2-0.3-0.3-0.5-0.3c0.1-0.5,0-1-0.5-1.2c-0.2-0.1-0.5,0-0.7,0
		c0.1-0.1,0.1-0.3,0.1-0.4c0-0.3-0.2-0.5-0.5-0.6c-0.3-0.1-0.6-0.1-0.9,0c0-0.1-0.1-0.3-0.1-0.4c-0.1-0.2-0.3-0.3-0.5-0.3
		c0-0.2,0-0.3-0.1-0.5c-0.1-0.2-0.3-0.3-0.5-0.3c0.1-0.5,0-1-0.5-1.2c-0.4-0.1-0.9,0-1.2,0.3c-0.1-0.2-0.4-0.3-0.7-0.3
		c-0.1,0-0.1,0-0.2,0.1c0-0.3-0.2-0.6-0.5-0.7c0.2-0.3,0.3-0.7,0.1-1c0.3-0.3,0.6-0.8,0.5-1.3c0.8-0.1,1.6-0.7,1.4-1.4
		c0.4,0,0.8-0.1,1-0.5c0.2-0.6-0.3-1.1-0.8-1.3c0.1-0.5,0.1-1-0.3-1.3c-0.3-0.2-0.9-0.1-1.2,0.2c0,0,0-0.1-0.1-0.1
		c-0.2-0.3-0.4-0.4-0.7-0.4c0-0.2-0.1-0.4-0.3-0.6c-0.1-0.1-0.2-0.1-0.2-0.1c0,0,0,0,0,0c0.2-0.6-0.3-1.1-0.8-1.3
		c0.1-0.5,0.1-1-0.3-1.3c-0.3-0.2-0.9-0.1-1.2,0.2c0,0,0-0.1-0.1-0.1c-0.2-0.3-0.4-0.4-0.7-0.4c0-0.2-0.1-0.4-0.3-0.6
		c-0.1-0.1-0.2-0.1-0.2-0.1c0,0,0,0,0,0c0.1-0.2,0.1-0.4,0-0.6c0.4-0.2,0.6-0.5,0.4-0.9c0.2-0.1,0.3-0.3,0.4-0.5
		c0.1-0.4-0.1-0.7-0.4-0.8c0.3-0.5-0.2-1.2-0.7-1.4c0.1-0.3,0.2-0.6,0.1-1c-0.1-0.3-0.3-0.4-0.5-0.5c0-0.5-0.2-1.1-0.7-1.1
		c-0.4,0-0.7,0.1-1,0.3c0-0.5-0.3-0.9-0.7-1.1c0.3-0.5,0.3-1.1-0.2-1.3c0.3-0.5,0-1.2-0.5-1.4c0.1-0.1,0.2-0.2,0.3-0.4
		c0.1-0.3,0.1-0.5-0.1-0.7c0.1-0.1,0.3-0.2,0.4-0.3c0.2-0.3,0.1-0.8-0.2-1c0.1-0.1,0.1-0.3,0.1-0.4c-0.1-0.2-0.3-0.4-0.5-0.5
		c-0.2-0.1-0.4-0.2-0.7-0.2c-0.1,0-0.2,0-0.2,0.1c-0.1-0.1-0.3-0.2-0.6-0.2c-0.6,0.1-0.7,0.5-0.8,1c-0.1-0.1-0.2-0.2-0.4-0.2
		c0.1-0.2,0-0.5-0.1-0.7c-0.2-0.2-0.4-0.3-0.6-0.4c0,0,0,0,0-0.1c0.1-0.3,0.1-0.5-0.1-0.7c0.1-0.1,0.3-0.2,0.4-0.3
		c0.2-0.3,0.1-0.8-0.2-1c0.1-0.1,0.1-0.3,0.1-0.4c-0.1-0.2-0.3-0.4-0.5-0.5c-0.2-0.1-0.4-0.2-0.6-0.2c-0.2-0.3-0.5-0.5-0.8-0.4
		c0-0.1,0-0.3-0.1-0.4c-0.1-0.1-0.2-0.2-0.3-0.3c0.2-0.1,0.3-0.2,0.4-0.3c0.2-0.3,0.2-0.6,0-0.9c0.1-0.1,0.2-0.2,0.3-0.4
		c0.1-0.4-0.1-0.8-0.4-1c0.1-0.1,0.1-0.1,0.2-0.3c0.1-0.3,0-0.7-0.2-0.9c0.4-0.5,0.1-1.3-0.4-1.6c-0.6-0.4-1.4,0.2-1.8,0.9
		c-0.2-0.2-0.4-0.3-0.6-0.3c0-0.2,0-0.3-0.1-0.5c-0.1-0.1-0.2-0.2-0.3-0.3c0-0.3-0.1-0.5-0.4-0.7c0,0,0-0.1-0.1-0.1
		c0.1-0.1,0.1-0.1,0.1-0.2c0.1-0.3,0-0.7-0.2-0.9c0.4-0.5,0.1-1.3-0.4-1.6c-0.6-0.4-1.4,0.2-1.8,0.9c-0.2-0.2-0.4-0.3-0.6-0.3
		c0-0.2,0-0.3-0.1-0.5c-0.1-0.1-0.2-0.2-0.3-0.3c0-0.3-0.1-0.5-0.4-0.7c0,0,0-0.1-0.1-0.1c0.1-0.1,0.1-0.1,0.1-0.2
		c0.1-0.3,0-0.7-0.2-0.9c0.4-0.5,0.1-1.3-0.4-1.6c-0.6-0.4-1.4,0.2-1.8,0.9c-0.2-0.2-0.4-0.3-0.6-0.3c0-0.2,0-0.3-0.1-0.5
		c-0.1-0.2-0.3-0.3-0.5-0.3c0-0.3-0.1-0.6-0.4-0.9c-0.3-0.2-0.6-0.2-1-0.1c0,0,0-0.1,0-0.1c0.1-0.2-0.1-0.5-0.2-0.6
		c-0.2-0.2-0.4-0.3-0.6-0.4c-0.2,0-0.3,0-0.5,0.1c-0.1-0.4-0.3-0.7-0.7-0.9c-0.5-0.2-0.9,0-1.1,0.4c0,0-0.1-0.1-0.2-0.1
		c0.1-0.1,0.1-0.3,0.1-0.5c0-0.3-0.2-0.5-0.4-0.6c0.1-0.2,0.1-0.4,0.1-0.6c0-0.1-0.1-0.3-0.2-0.4c0,0,0.1-0.1,0.1-0.2
		c0.1-0.2-0.1-0.5-0.2-0.6c-0.2-0.2-0.4-0.3-0.6-0.4c-0.2,0-0.3,0-0.5,0.1c-0.1-0.4-0.3-0.7-0.7-0.9c-0.5-0.2-0.9,0-1.1,0.4
		c-0.3-0.2-0.7-0.2-1,0c-0.1-0.3-0.3-0.5-0.6-0.5c-0.5,0-0.6,0.3-0.8,0.7c-0.1-0.1-0.3-0.1-0.5-0.1c0-0.3,0-0.6-0.1-0.8
		c-0.2-0.3-0.4-0.3-0.6-0.2c-0.2-0.9-1.3-1.2-1.9-0.5c-0.2-0.1-0.3-0.2-0.5-0.2c-0.3,0-0.5,0.2-0.7,0.5c-0.1-0.1-0.2-0.2-0.4-0.2
		c-0.2-0.1-0.5,0-0.6,0.1c0,0,0,0.1,0,0.1c0.2,0.1,0.4,0.3,0.4,0.6c0,0.2,0,0.5-0.2,0.7c0.2,0.1,0.4,0.2,0.4,0.4c0,0.1,0,0.1,0,0.2
		c0.2,0,0.4,0.1,0.5,0.2c0.1,0.2,0.1,0.4,0.1,0.5c0.2,0.1,0.4,0.2,0.5,0.4c0.2-0.4,0.6-0.6,1.1-0.5c0.2,0.1,0.4,0.2,0.4,0.4
		c0.4-0.3,0.9-0.4,1.3-0.1c0.3,0.2,0.4,0.5,0.4,0.9c0.2,0,0.4,0.1,0.5,0.3c0.1,0.2,0.1,0.3,0.1,0.5c0.2,0,0.4,0.1,0.6,0.3
		c0.4-0.6,1.1-1.3,1.8-0.9c0.5,0.3,0.8,1.1,0.4,1.6c0.2,0.2,0.3,0.6,0.2,0.9c0,0.1-0.1,0.2-0.2,0.3c0.3,0.2,0.6,0.6,0.4,1
		c-0.1,0.2-0.2,0.3-0.3,0.4c0.2,0.3,0.2,0.6,0,0.9c-0.1,0.1-0.2,0.3-0.4,0.3c0.1,0.1,0.2,0.2,0.3,0.3c0.1,0.1,0.1,0.3,0.1,0.4
		c0.6-0.2,1,0.5,1,1.1c0.4,0.2,0.8,0.8,0.6,1.2c-0.1,0.2-0.3,0.3-0.5,0.4c0.3,0.2,0.5,0.4,0.5,0.7c0,0.1,0,0.2,0,0.3
		c0.3,0,0.6,0.1,0.8,0.4c0.2,0.2,0.2,0.5,0.1,0.7c0.1,0,0.2,0.1,0.4,0.2c0-0.5,0.2-0.9,0.8-1c0.3,0,0.4,0,0.6,0.2
		c0.1-0.1,0.1-0.1,0.2-0.1c0.2,0,0.5,0.1,0.7,0.2c0.2,0.1,0.4,0.3,0.5,0.5c0,0.2,0,0.3-0.1,0.4c0.3,0.2,0.4,0.7,0.2,1
		c-0.1,0.1-0.2,0.3-0.4,0.3c0.2,0.2,0.2,0.4,0.1,0.7c-0.1,0.1-0.2,0.3-0.3,0.4c0.5,0.2,0.8,0.9,0.5,1.4c0.5,0.3,0.5,0.9,0.2,1.3
		c0.4,0.2,0.7,0.6,0.7,1.1c0.3-0.2,0.6-0.4,1-0.3c0.6,0.1,0.7,0.6,0.7,1.1c0.2,0,0.4,0.2,0.5,0.5c0.1,0.3,0.1,0.7-0.1,1
		c0.6,0.2,1.1,0.9,0.7,1.4c0.3,0.1,0.5,0.4,0.4,0.8c-0.1,0.2-0.2,0.4-0.4,0.5c0.3,0.5-0.2,0.8-0.7,1.1c0.1,0.2,0.1,0.4,0,0.6
		c0,0,0,0.1-0.1,0.1c0.5,0.1,0.6,0.8,0.5,1.3c0.3-0.1,0.6,0,0.7,0.3c0.1,0.1,0.1,0.2,0.1,0.4c0.2-0.2,0.5-0.2,0.8-0.1
		c0.4,0.1,0.5,0.5,0.5,0.9c0.4-0.1,0.8,0.1,0.9,0.5c0,0,0,0.1,0,0.1c0.3-0.1,0.5,0,0.7,0.1c0.2,0.2,0.3,0.4,0.3,0.6
		c0.3,0,0.5,0.1,0.7,0.4c0,0,0,0.1,0.1,0.1c0.3-0.3,0.9-0.4,1.2-0.2c0.4,0.3,0.5,0.8,0.3,1.3c0.5,0.2,1.1,0.7,0.8,1.3
		c-0.2,0.4-0.6,0.5-1,0.5c0.2,0.7-0.6,1.3-1.4,1.4c0,0.5-0.2,1-0.5,1.3c0.2,0.3,0.2,0.7-0.1,1c0.8,0.3,0.7,1.3,0,1.7
		c0.1,0.1,0.1,0.2,0.1,0.3c0,0.3,0,0.5-0.2,0.8c0.2,0.2,0.3,0.5,0.2,0.8c-0.1,0.2-0.2,0.4-0.3,0.5c0.3,0.2,0.6,0.5,0.5,0.9
		c0,0.3-0.1,0.5-0.3,0.7c0.1,0.1,0.2,0.2,0.2,0.4c0,0.2,0,0.3-0.1,0.5c0.2,0.1,0.4,0.3,0.5,0.5c0,0,0,0,0,0.1c0.4,0,0.6,0.4,0.7,0.8
		c0.2-0.1,0.5-0.2,0.7-0.1c0.3,0,0.4,0.2,0.6,0.3c0.3-0.1,0.6-0.1,0.9,0.1c0.1,0.1,0.1,0.1,0.2,0.2c0.2-0.1,0.4-0.1,0.5-0.1
		c0.1,0,0.2,0,0.3,0c0.2-0.5,0.7-0.9,1.2-0.9c0.5,0,0.8,0.4,0.9,0.8c0.1,0,0.3,0,0.4,0.1c0.1,0,0.1,0.1,0.2,0.2
		c0.2-0.4,0.6-0.6,0.9-0.7c0.4-0.1,0.6,0.1,0.7,0.3c0.3-0.3,0.8-0.4,1.2-0.3c0.5,0.2,0.6,0.7,0.5,1.2c0.2,0,0.3,0.1,0.5,0.3
		c0.1,0.2,0.1,0.3,0.1,0.5c0.2,0,0.4,0.1,0.5,0.3c0.1,0.1,0.1,0.3,0.1,0.4c0.2-0.1,0.6-0.1,0.9,0c0.2,0.1,0.4,0.3,0.5,0.6
		c0,0.2,0,0.3-0.1,0.4c0.2,0,0.5,0.1,0.5,0.3c0.1,0.2,0,0.4-0.1,0.5c0.3,0.1,0.6,0.4,0.5,0.8c0,0.2-0.1,0.4-0.3,0.5
		c0.2,0.2,0.4,0.5,0.2,0.8c0,0.1-0.1,0.1-0.1,0.2c0.4,0.1,0.7,0.4,0.8,0.8c0,0.1,0,0.2,0,0.2c0.3,0,0.5,0.2,0.6,0.5
		c0.1,0.2,0.1,0.4,0.1,0.6c0.2,0,0.4,0,0.5,0.1c0.2,0.2,0.2,0.5,0.2,0.8c0,0.3-0.1,0.6-0.4,0.7c-0.1,0-0.1,0.1-0.2,0.1c0,0,0,0,0,0
		c0.1,0.5,0,1.1-0.6,1.3c-0.1,0-0.1,0-0.2,0c0.3,1-0.8,1.1-1.6,1c0,0.3-0.2,0.7-0.4,0.9c-0.3,0.2-0.7,0.1-0.9-0.1
		c-0.1,0.1-0.2,0.2-0.4,0.3c-0.3,0.1-0.6,0.1-0.8-0.1c0,0,0,0,0,0c0,0.3-0.2,0.5-0.4,0.7c0,0,0.1,0.1,0.1,0.1
		c0.1,0.1,0.2,0.2,0.2,0.3c0.1,0.2,0,0.4-0.1,0.5c-0.1,0.1-0.1,0.1-0.2,0.1c0.1,0.1,0.2,0.2,0.2,0.4c0,0.2-0.1,0.5-0.2,0.7
		c-0.2,0.2-0.5,0.4-0.8,0.4c0.1,1-1.6,1.6-1.9,0.5c-0.2,0.1-0.5,0.1-0.7,0c-0.3-0.1-0.4-0.4-0.3-0.7c-0.2,0-0.4,0-0.6-0.1
		c0.1,0.5-0.5,1.1-1,0.9c-0.1,0.1-0.2,0.2-0.4,0.3c0,0-0.1,0-0.1,0c0.2,0.2,0.4,0.4,0.2,0.7c0,0.1-0.1,0.1-0.1,0.2
		c0.6,0.4,0.4,1.2-0.1,1.6c0.5,0,0.9,0.3,0.9,0.8c0,0.2,0,0.5-0.1,0.6c0.4,0,0.7,0.3,0.8,0.7c0,0.2,0,0.4-0.1,0.6
		c0.6,0.3,0.8,1.1,0,1.5c-0.3,0.2-0.8,0.3-1.2,0.3c0.1,0.3-0.1,0.6-0.4,0.8c-0.2,0.2-0.4,0.3-0.7,0.2c-0.2,0-0.3-0.1-0.4-0.2
		c-0.1,0.2-0.3,0.4-0.5,0.5c0.2,0.1,0.4,0.3,0.5,0.5c0.1,0.3,0.2,0.6,0,0.9c-0.2,0.3-0.6,0.5-1,0.5c0.2,0.6,0,1.2-0.7,1.5
		c-0.1,0-0.1,0-0.2,0c0.1,0.5-0.6,1.2-1,1.4c-0.4,0.2-0.7,0.3-1.1,0.1c-0.2-0.1-0.4-0.2-0.5-0.4c0,0-0.1,0-0.1,0.1
		c-0.2,0.1-0.4,0.2-0.6,0.2c0,0.6-0.3,1.1-1,1.2c-0.2,0-0.4,0-0.5-0.1c0.1,0.3,0,0.6-0.2,0.9c-0.2,0.3-0.5,0.4-0.8,0.4
		c-0.1,0-0.3,0-0.4,0c0.3,1.2-1.3,1.8-2.2,1.3c0,0,0,0,0,0c-0.6,0.4-2.1,0.3-2.1-0.5c-0.2,0-0.3,0-0.5,0c-0.3-0.1-0.4-0.4-0.4-0.6
		c-0.1,0-0.2,0.1-0.3,0.1c-0.5,0.1-0.9-0.2-1-0.6c-0.3,0.2-0.7,0.3-1.1,0.1c-0.3-0.1-0.6-0.4-0.6-0.6c-0.2,0.1-0.3,0.2-0.5,0.3
		c0.2,0.5-0.1,0.8-0.5,1c0,0,0,0,0,0.1c0.2,0.3,0.3,0.7,0.1,1c0.3,0.1,0.6,0.3,0.6,0.6c0.3-0.1,0.8,0,1,0.2c0.2,0.2,0.5,0.4,0.5,0.7
		c0,0.3-0.2,0.5-0.4,0.7c0.4,0.7-0.3,2.2-1.3,1.7c-0.1,0.2-0.3,0.3-0.5,0.4c-0.6,0.3-1.1,0-1.4-0.6c0,0,0,0-0.1,0.1
		c0,0,0.1,0.1,0.1,0.1c0.4,0.4,0.4,0.9,0.1,1.3c0.5,0.3,0.8,1.7,0.3,2c0,0.1,0.1,0.2,0,0.4c-0.1,0.3-0.3,0.6-0.6,0.8
		c-0.3,0.2-0.6,0.3-0.9,0.2c-0.2-0.1-0.3-0.3-0.4-0.5c-0.1,0.1-0.2,0.1-0.4,0.2c-0.3,0.1-0.7,0.1-1-0.1c0,0,0,0-0.1,0
		c-0.1,0.2-0.3,0.4-0.6,0.4c0.1,0.4,0,0.8-0.3,1.1c-0.4,0.4-0.9,0.4-1.3,0.2c-0.1,0.5-0.5,0.9-1,0.8c-0.1,0.3-0.4,0.6-0.8,0.7
		c-0.5,0.2-1.3,0.1-1.3-0.6v0c-0.3,0.2-0.7,0.3-1,0.1c-0.3-0.2-0.3-0.6-0.3-1c0,0-0.1,0-0.1,0c-0.5,0.2-0.9-0.1-1-0.5
		c-0.2,0.2-0.4,0.3-0.7,0.4c-0.4,0.1-0.6-0.1-0.7-0.4c-0.6,0.1-1.6,0.1-1.6-0.8c0-0.4,0.3-0.7,0.6-0.9c-0.1-0.2-0.1-0.3-0.1-0.5
		c-0.1,0-0.2,0-0.3,0c-0.4,0-0.5-0.3-0.5-0.7c-0.2,0.1-0.5,0.1-0.7,0c-0.2-0.1-0.3-0.2-0.4-0.3c-0.3,0.2-0.6,0.3-1,0.1
		c-0.3-0.1-0.4-0.4-0.4-0.6c-0.5,0-0.9-0.1-0.9-0.6c0-0.5,0.4-0.9,0.9-1.1c0,0,0,0,0,0c-0.1-0.2,0.1-0.5,0.2-0.6
		c0,0,0.1-0.1,0.1-0.1c-0.1-0.1-0.2-0.2-0.3-0.3c-0.1-0.3,0-0.5,0.3-0.7c-0.2,0-0.4,0-0.6-0.1c0.1,0.4-0.1,0.7-0.4,1
		c-0.2,0.2-0.6,0.4-0.9,0.2c-0.1,0.1-0.2,0.2-0.3,0.3c0.4,0.4-0.2,1.1-0.6,1.3c-0.3,0.2-0.7,0.3-1,0.2c-0.2-0.1-0.3-0.3-0.4-0.5
		c-0.3,0.4-0.7,0.7-1,0.5c-0.1,0.2-0.3,0.4-0.5,0.5c-0.2,0.1-0.5,0.2-0.8,0.1c-0.2-0.1-0.4-0.3-0.5-0.6c-0.3,0.2-0.7,0.3-0.9,0.1
		c-0.3-0.2-0.4-0.5-0.3-0.9c-0.1,0-0.2,0.1-0.3,0.1c-0.5,0.1-0.9-0.3-1-0.7c-0.1,0.1-0.3,0.2-0.5,0.3c-0.4,0.1-0.9,0-0.9-0.4
		c-0.2,0.1-0.3,0.2-0.5,0.2c-0.3,0.1-0.7,0.1-1-0.1c-0.2-0.1-0.2-0.3-0.2-0.4c-0.1,0.1-0.1,0.1-0.2,0.2c-0.2,0.1-0.4,0.2-0.5,0.2
		c-0.1,0.4-0.4,0.8-0.8,0.9c0.1,0.4,0,0.8-0.3,1.2c-0.2,0.2-0.5,0.4-0.8,0.3c-0.2,0-0.3-0.2-0.4-0.3c-0.1,0.1-0.2,0.1-0.3,0.1
		c-0.2,0.1-0.5,0.1-0.8,0c-0.1,0-0.1-0.1-0.2-0.2c0,0.1-0.1,0.2-0.1,0.3c-0.3,0.5-0.7,0.7-1.1,0.6c0,0.1,0,0.2,0,0.2
		c0,0.2-0.2,0.4-0.3,0.6c0.1,0.1,0.2,0.3,0.1,0.5c-0.1,0.3-0.4,0.6-0.7,0.8c-0.3,0.2-0.7,0.3-1,0.2c-0.3-0.1-0.4-0.4-0.3-0.7
		c-0.5,0.2-1.2,0.3-1.3-0.4c-0.1-0.4,0-0.9,0.3-1.2c0,0,0,0-0.1,0c-0.3-0.1-0.5-0.3-0.6-0.5c-0.2,0.2-0.5,0.3-0.8,0.3
		c-0.5,0-0.9-0.3-0.9-0.8c-0.3,0.2-0.6,0.2-0.9,0c-0.2-0.2-0.3-0.4-0.3-0.7c-0.2,0.1-0.4,0.2-0.6,0.3c-0.2,0-0.6,0-0.7-0.2
		c-0.1-0.2-0.1-0.3-0.2-0.5c-0.4,0.3-0.9,0.6-1.4,0.5c-0.5-0.1-0.5-0.5-0.4-0.9c-0.4,0.1-0.7,0.2-1,0.1c-0.1,1-0.3,1.9-0.4,2.9
		c-0.3,2.1-0.5,4.2-0.2,6.4c0.2,2.1,0.6,4.2,1.5,6.1c0.9,1.9,2,3.9,3.6,5.4c0.8,0.7,1.7,1.3,2.6,1.9c0.9,0.6,1.7,1.1,2.7,1.5
		c1.9,0.7,4,0.9,6,1.4c1.1,0.3,2.2,0.7,3.3,0.9c0.1,0,0.2,0,0.2,0c0-0.1-0.1-0.1-0.1-0.2c-0.9-1.9-1.3-4-1.5-6.1
		c-0.2-2.1-0.1-4.2,0.2-6.4c0-0.3,0.1-0.5,0.1-0.8c0,0,0.1-0.1,0.1-0.1c0.1,0.2,0.3,0.4,0.6,0.5c0,0,0,0,0.1,0
		c-0.2,0.4-0.3,0.8-0.3,1.2c0.1,0.7,0.8,0.6,1.3,0.4c0,0.3,0,0.6,0.3,0.7c0.3,0.1,0.7,0,1-0.2c0.3-0.2,0.6-0.4,0.7-0.8
		c0.1-0.2,0-0.4-0.1-0.5c0.1-0.2,0.2-0.4,0.3-0.6c0-0.1,0-0.2,0-0.2c0.4,0.1,0.8-0.1,1.1-0.6c0-0.1,0.1-0.2,0.1-0.3
		c0,0.1,0.1,0.1,0.2,0.2c0.1,0.1,0.3,0.1,0.5,0.1c0.1,0.2,0.4,0.3,0.7,0.3c0.3,0,0.6-0.1,0.8-0.3c0.1,0.2,0.3,0.4,0.6,0.5
		c0,0,0,0,0.1,0c-0.2,0.4-0.3,0.8-0.3,1.2c0.1,0.7,0.8,0.6,1.3,0.4c0,0.3,0,0.6,0.3,0.7c0.3,0.1,0.7,0,1-0.2
		c0.3-0.2,0.6-0.4,0.7-0.8c0.1-0.2,0-0.4-0.1-0.5c0.1-0.2,0.2-0.4,0.3-0.6c0-0.1,0-0.2,0-0.2c0.4,0.1,0.8-0.1,1.1-0.6
		c0-0.1,0.1-0.2,0.1-0.3c0,0.1,0.1,0.1,0.2,0.2c0.2,0.1,0.5,0.1,0.8,0c0.1,0,0.2-0.1,0.3-0.1c0.1,0.2,0.2,0.3,0.4,0.3
		c0.3,0,0.6-0.1,0.8-0.3c0.2-0.2,0.3-0.4,0.3-0.5c0.1,0.2,0.2,0.3,0.4,0.4c0.3,0.1,0.6,0.1,0.8-0.1c0.2-0.1,0.4-0.3,0.5-0.5
		c0.3,0.1,0.8-0.1,1-0.5c0.1,0.2,0.2,0.4,0.4,0.5c0.3,0.1,0.7,0,1-0.2c0.3-0.1,0.6-0.5,0.7-0.8c0.2,0.3,0.4,0.4,0.8,0.4
		c0.1,0,0.2,0,0.3-0.1c-0.1,0.1-0.1,0.2-0.1,0.4c0,0.1,0,0.3,0.1,0.4c0.1,0.4,0.5,0.5,0.9,0.5c0,0.2,0.2,0.5,0.4,0.6
		c0.3,0.2,0.7,0.1,1-0.1c0.1,0.1,0.2,0.2,0.4,0.3c0.2,0.1,0.5,0.1,0.7,0c0,0.3,0.1,0.6,0.5,0.7c0.1,0,0.2,0,0.3,0
		c-0.1,0.1-0.1,0.3,0.1,0.5c-0.3,0.1-0.6,0.5-0.6,0.9c-0.1,0.9,1,0.9,1.6,0.8c0.1,0.3,0.4,0.5,0.7,0.4c0.3,0,0.5-0.2,0.7-0.4
		c0.1,0.4,0.5,0.6,1,0.5c0,0,0.1,0,0.1,0c-0.1,0.4,0,0.8,0.3,1c0.3,0.2,0.7,0.1,1-0.1v0c0,0.7,0.7,0.8,1.3,0.6
		c0.4-0.1,0.6-0.4,0.8-0.7c0.5,0.1,0.9-0.3,1-0.8c0.4,0.2,0.8,0.2,1.1-0.1c0,0,0,0,0.1,0c0.3,0,0.5-0.2,0.7-0.4
		c0.1,0.4,0.5,0.6,1,0.5c0,0,0.1,0,0.1,0c-0.1,0.4,0,0.8,0.3,1c0.3,0.2,0.7,0.1,1-0.1v0c0,0.7,0.7,0.8,1.3,0.6
		c0.4-0.1,0.6-0.4,0.8-0.7c0.5,0.1,0.9-0.3,1-0.8c0.4,0.2,0.9,0.2,1.3-0.2c0.3-0.3,0.4-0.7,0.3-1.1c0.3,0,0.5-0.2,0.6-0.4
		c0,0,0,0,0.1,0c0.3,0.2,0.7,0.2,1,0.1c0.1,0,0.3-0.1,0.4-0.2c0,0.2,0.2,0.4,0.4,0.5c0.3,0.1,0.6,0,0.9-0.2c0.3-0.2,0.5-0.5,0.6-0.8
		c0-0.1,0-0.3,0-0.4c0.5-0.4,0.2-1.7-0.3-2c0.3-0.4,0.2-0.9-0.1-1.3c0,0-0.1-0.1-0.1-0.1c0,0,0,0,0.1-0.1c0.3,0.5,0.8,0.8,1.4,0.6
		c0.2-0.1,0.4-0.2,0.5-0.4c1,0.5,1.7-1,1.3-1.7c0.2-0.2,0.3-0.4,0.4-0.7c0-0.3-0.2-0.6-0.5-0.7c-0.3-0.2-0.7-0.3-1-0.2
		c0-0.3-0.3-0.5-0.6-0.6c0,0,0,0,0,0c0.9,0.2,2.1-0.4,1.8-1.4c0.1,0,0.3,0,0.4,0c0.2,0,0.3-0.1,0.5-0.1c0.2,0.3,0.5,0.5,0.9,0.4
		c0.1,0,0.2,0,0.3-0.1c0,0.3,0.1,0.5,0.4,0.6c0.2,0.1,0.3,0.1,0.5,0c-0.1,0.8,1.5,0.9,2.1,0.5c0,0,0,0,0,0c0.9,0.4,2.5-0.1,2.2-1.3
		c0.1,0,0.3,0,0.4,0c0.3,0,0.6-0.2,0.8-0.4c0.2-0.3,0.2-0.6,0.2-0.9c0.2,0.1,0.3,0.1,0.5,0.1c0.7,0,1-0.6,1-1.2
		c0.2,0,0.4-0.1,0.6-0.2c0,0,0.1,0,0.1-0.1c0.1,0.2,0.3,0.3,0.5,0.4c0.4,0.2,0.8,0.1,1.1-0.1c0.4-0.2,1.1-0.9,1-1.4
		c0.1,0,0.1,0,0.2,0c0.7-0.2,0.9-0.9,0.7-1.5c0.4,0,0.8-0.2,1-0.5c0.2-0.3,0.1-0.6,0-0.9c-0.1-0.2-0.3-0.3-0.5-0.5
		c0.2-0.1,0.4-0.3,0.5-0.5c0.1,0.1,0.2,0.2,0.4,0.2c0.3,0,0.5-0.1,0.7-0.2c0.2-0.2,0.4-0.5,0.4-0.8c0.4,0,0.9-0.1,1.2-0.3
		c0.8-0.4,0.6-1.1,0-1.5c0.1-0.2,0.2-0.3,0.1-0.6c-0.1-0.4-0.4-0.7-0.8-0.7c0.1-0.2,0.2-0.4,0.1-0.6c-0.1-0.5-0.5-0.8-0.9-0.8
		c0.5-0.5,0.7-1.2,0.1-1.6c0.1-0.1,0.1-0.1,0.1-0.2c0.2-0.3,0-0.6-0.2-0.7c0,0,0.1,0,0.1,0c0.1-0.1,0.3-0.2,0.4-0.3
		c0.5,0.2,1.1-0.4,1-0.9c0.2,0.1,0.4,0.1,0.6,0.1c-0.1,0.3,0,0.6,0.3,0.7c0.2,0.1,0.5,0.1,0.7,0c0.3,1,1.9,0.5,1.9-0.5
		c0.3,0,0.6-0.2,0.8-0.4c0.2-0.2,0.3-0.4,0.2-0.7c0-0.2-0.1-0.3-0.2-0.4c0.1,0,0.2-0.1,0.2-0.1c0.2-0.1,0.2-0.4,0.1-0.5
		c0-0.1-0.1-0.2-0.2-0.3c0,0-0.1-0.1-0.1-0.1c0.2-0.2,0.3-0.4,0.4-0.7c0,0,0,0,0,0c0.2,0.2,0.6,0.2,0.8,0.1c0.2-0.1,0.3-0.2,0.4-0.3
		c0.2,0.2,0.7,0.3,0.9,0.1c0.3-0.2,0.4-0.5,0.4-0.9c0.8,0.2,1.9,0,1.6-1c0.1,0,0.1,0,0.2,0c0.6-0.2,0.6-0.8,0.6-1.3c0,0,0,0,0,0
		c0.1,0,0.1,0,0.2-0.1c0.3-0.2,0.4-0.5,0.4-0.7C500,163.4,500,163.1,499.8,162.9z"/>
	<path class="st2" d="M373.5,173.4c1.2,0,2.3,0,3.5,0.2c1.1,0.2,2.2,0.4,3.4,0.7c1.2,0.3,2.5,0.6,3.7,0.8c0.9,0.2,1.8,0.4,2.6,0.8
		c0.4,0.2,0.8,0.5,1.2,0.7c-0.4-0.9-0.9-2-0.5-2.9c0.2-0.5,0.8-1.2,0.6-1.8c-0.2-0.6-0.8-1-1.1-1.5c-0.4-0.6-0.8-1.3-1.3-1.9
		c-0.2,0.4-0.7,0.8-1.1,0.6c-0.1,0.5-0.5,1.1-1.1,0.9c0,0,0,0,0,0c0,0.2-0.1,0.4-0.3,0.6c-0.2,0.2-0.5,0.4-0.8,0.3
		c-0.2-0.1-0.4-0.2-0.5-0.3c-0.1,0.3-0.4,0.5-0.6,0.7c-0.3,0.2-0.8,0.4-1.1,0.2c-0.2-0.1-0.3-0.2-0.4-0.4c-0.5,0.3-1.1,0.8-1.6,0.3
		c-0.3-0.2-0.2-0.4-0.2-0.8c0-0.1,0-0.1,0-0.2c0,0,0,0,0,0c-0.4,0.2-0.7,0.2-0.9-0.2c-0.2-0.5,0-1.1,0.4-1.5
		c-0.2-0.2-0.4-0.4-0.6-0.6c-0.4,0.7-1.1,1.3-1.9,1c-0.1,0.3-0.2,0.6-0.3,0.8c-0.2,0.3-0.4,0.5-0.7,0.6c-0.1,0-0.2,0-0.3-0.1
		c-0.1,0.6-0.4,1.2-0.9,1.3c0,0,0,0,0,0.1c0.2,0.5,0.2,1.3-0.3,1.7C372.6,173.4,373,173.4,373.5,173.4z"/>
	<path class="st2" d="M316.8,163.4c0-0.2,0-0.5,0.2-0.7c0.1-0.1,0.1-0.1,0.2-0.2c-0.1-0.1-0.1-0.1-0.1-0.3c-0.1-0.6,0.4-0.8,0.8-1
		c0-0.3,0.2-0.5,0.3-0.7c-0.1,0-0.1-0.1-0.2-0.1c-0.2,0.3-0.4,0.5-0.8,0.4c-0.2,0-0.3-0.1-0.4-0.2c0,0,0,0,0,0
		c-0.3,0.2-0.8,0.3-1.1,0.1c-0.1,0.1-0.1,0.1-0.2,0.2c-0.3,0.5,0.1,0.9,0.5,1.1c-0.2,0.2-0.4,0.5-0.3,0.8c0.1,0.4,0.6,0.5,0.9,0.4
		c0,0.1,0.1,0.3,0.2,0.4c0.1,0.1,0.2,0.1,0.3,0.1C317,163.8,316.8,163.6,316.8,163.4z"/>
	<path class="st2" d="M386.6,187.5c0.1-1.9,0-4-1-5.7c-2-3.4-6.1-3.9-9.6-4.5c-1.8-0.3-3.6-0.8-5.3-1.4c0.4,0.6,0.6,1.4-0.1,1.8
		c-0.3,0.1-0.6,0.2-0.9,0.3c0.4,0.4,0,1.2-0.3,1.5c-0.7,0.6-1.4,0.5-2,0c-0.4,0.3-0.9,0.4-1.4,0.2c-0.4-0.2-0.6-0.6-0.6-1
		c-0.2,0.2-0.4,0.4-0.7,0.4c0.3,0.3,0.4,0.7,0.1,1.1c0,0.1-0.1,0.1-0.1,0.2c0.3,0,0.5,0.1,0.7,0.4c0.1,0.2,0.1,0.5,0,0.8
		c-0.1,0.2-0.3,0.5-0.6,0.5c-0.3,0-0.6-0.1-0.8-0.2c-0.1,0.3-0.4,0.4-0.7,0.5c-0.4,0.1-0.7-0.1-0.9-0.3c-0.1,0.1-0.2,0.2-0.3,0.2
		c-0.2,0.1-0.4,0.1-0.6,0c-0.1,0-0.1-0.1-0.1-0.1c-0.1,0.1-0.2,0.2-0.3,0.3c-0.2,0.2-0.6,0.2-0.9,0.2c0,0.5-0.3,0.9-0.7,1.2
		c-0.4,0.3-0.8,0.5-1.3,0.5c-0.3,0-0.6-0.2-0.7-0.5c-0.2,0.3-0.5,0.5-0.8,0.7c-0.9,0.5-1.9,0.2-2.1-0.7c-0.4,0.4-0.9,0.6-1.5,0.5
		c-0.6-0.1-0.9-0.5-1-1c-0.3,0.1-0.6,0.2-0.9,0.2c-0.4-0.1-0.7-0.3-0.8-0.7c-0.2-0.7,0.2-1.4,0.8-1.7c-0.3-0.1-0.5-0.2-0.7-0.5
		c0,0-0.1-0.1-0.1-0.1c-0.4,0.3-1,0.3-1.5,0.2c-0.1,0-0.3-0.1-0.4-0.2c0,0-0.1,0-0.1,0c-0.3,0.4-0.5,0.9-0.5,1.5
		c0,0.5,0.2,1.1,0.7,1.3c0.4,0.2,0.9,0.1,1.4-0.2c0.2,0.9,1.2,1.6,2.1,1c-0.3,0.4-0.5,0.9-0.5,1.5c0,0.5,0.2,1.1,0.7,1.3
		c0.4,0.2,0.9,0.1,1.4-0.2c0.2,0.9,1.2,1.6,2.1,1c-0.3,0.4-0.5,0.9-0.5,1.5c0,0.5,0.2,1.1,0.7,1.3c0.4,0.2,0.9,0.1,1.4-0.2
		c0.2,1,1.3,1.6,2.1,1c0.1,0.1,0.2,0.1,0.4,0.2c0.5,0.1,1,0.1,1.5-0.2c0,0.1,0.1,0.1,0.1,0.1c0.2,0.2,0.4,0.4,0.7,0.5
		c-0.6,0.3-1.1,0.9-0.8,1.7c0.1,0.4,0.4,0.6,0.8,0.7c0.3,0.1,0.6,0,0.9-0.2c0.1,0.5,0.4,0.9,1,1c0.5,0.1,1.1-0.1,1.5-0.5
		c0.2,1,1.2,1.2,2.1,0.7c0.3-0.2,0.6-0.4,0.8-0.7c0.2,0.2,0.4,0.4,0.7,0.5c0.5,0.1,1-0.2,1.3-0.5c0,0,0.1-0.1,0.1-0.1
		c0.2,0.3,0.4,0.5,0.8,0.5c0.5,0.1,1.1-0.1,1.5-0.5c0.2,1,1.2,1.2,2.1,0.7c0.3-0.2,0.6-0.4,0.8-0.7c0.2,0.2,0.4,0.4,0.7,0.5
		c0.5,0.1,1-0.2,1.3-0.5c0.4-0.3,0.6-0.7,0.7-1.2c0.3,0,0.6,0,0.9-0.2c0.1-0.1,0.2-0.2,0.3-0.3c0,0,0.1,0.1,0.1,0.1
		c0.2,0.1,0.4,0.1,0.6,0c0.1,0,0.2-0.1,0.3-0.2c0.2,0.3,0.5,0.4,0.9,0.3c0.3,0,0.6-0.2,0.7-0.5c0.2,0.2,0.5,0.3,0.8,0.2
		c0.3,0,0.5-0.3,0.6-0.5c0.1-0.2,0.1-0.5,0-0.8c-0.1-0.2-0.4-0.3-0.7-0.4c0.1-0.1,0.1-0.1,0.1-0.2c0.3-0.4,0.2-0.8-0.1-1.1
		c0.3,0,0.5-0.2,0.7-0.4c0,0.4,0.2,0.8,0.6,1c0.5,0.2,1,0.1,1.4-0.2c0.2,0.2,0.4,0.3,0.6,0.4c0-0.1,0-0.2,0-0.3
		C386.3,189.4,386.5,188.5,386.6,187.5z"/>
	<path class="st2" d="M313.6,156.7c-0.3,0-0.5,0-0.7-0.2c0,0,0,0,0,0.1c0,0.2,0,0.3,0.1,0.4c0.2,0,0.4,0,0.5,0.1
		C313.5,156.9,313.5,156.8,313.6,156.7z"/>
</g>
<path class="st3" d="M481.5,151.9c-0.1-0.1-0.3-0.2-0.5-0.1c0.1-0.2,0-0.4-0.1-0.6c-0.1-0.2-0.4-0.4-0.6-0.5c0-0.1,0-0.1,0-0.2
	c0-0.4-0.4-0.7-0.8-0.8c0,0,0.1-0.1,0.1-0.2c0.2-0.3,0-0.6-0.2-0.8c0.1-0.1,0.3-0.3,0.3-0.5c0.1-0.4-0.2-0.7-0.5-0.8
	c0.1-0.1,0.2-0.3,0.1-0.5c-0.1-0.2-0.3-0.3-0.5-0.3c0.1-0.1,0.1-0.3,0.1-0.4c0-0.3-0.2-0.5-0.5-0.6c-0.3-0.1-0.6-0.1-0.9,0
	c0-0.1-0.1-0.3-0.1-0.4c-0.1-0.2-0.3-0.3-0.5-0.3c0-0.2,0-0.3-0.1-0.5c-0.1-0.2-0.3-0.3-0.5-0.3c0.1-0.5,0-1-0.5-1.2
	c-0.4-0.1-0.9,0-1.2,0.3c-0.1-0.2-0.4-0.3-0.7-0.3c-0.4,0.1-0.8,0.3-0.9,0.7c-0.1-0.1-0.1-0.1-0.2-0.2c-0.1-0.1-0.2-0.1-0.4-0.1
	c-0.2-0.4-0.4-0.8-0.9-0.8c-0.5,0-1,0.4-1.2,0.9c-0.1,0-0.2,0-0.3,0c-0.2,0-0.4,0-0.5,0.1c0-0.1-0.1-0.1-0.2-0.2
	c-0.2-0.2-0.6-0.2-0.9-0.1c-0.1-0.2-0.3-0.3-0.6-0.3c-0.2,0-0.5,0-0.7,0.1c0-0.5-0.2-0.9-0.7-0.8c0,0,0,0,0-0.1
	c-0.1-0.2-0.2-0.4-0.5-0.5c0.1-0.1,0.1-0.3,0.1-0.5c0-0.2-0.1-0.3-0.2-0.4c0.2-0.2,0.3-0.4,0.3-0.7c0.1-0.5-0.2-0.8-0.5-0.9
	c0.1-0.2,0.2-0.3,0.3-0.5c0.1-0.3,0.1-0.6-0.2-0.8c0.1-0.2,0.2-0.5,0.2-0.8c0-0.1-0.1-0.2-0.1-0.3c0.6-0.4,0.8-1.4,0-1.7
	c0.2-0.3,0.3-0.7,0.1-1c0.3-0.3,0.6-0.8,0.5-1.3c0.8-0.1,1.6-0.7,1.4-1.4c0.4,0,0.8-0.1,1-0.5c0.2-0.6-0.3-1.1-0.8-1.3
	c0.1-0.5,0.1-1-0.3-1.3c-0.3-0.2-0.9-0.1-1.2,0.2c0,0,0-0.1-0.1-0.1c-0.2-0.3-0.4-0.4-0.7-0.4c0-0.2-0.1-0.4-0.3-0.6
	c-0.2-0.2-0.5-0.2-0.7-0.1c0,0,0-0.1,0-0.1c-0.1-0.4-0.5-0.6-0.9-0.5c0-0.4-0.1-0.8-0.5-0.9c-0.3-0.1-0.5,0-0.8,0.1
	c0-0.1-0.1-0.3-0.1-0.4c-0.2-0.3-0.5-0.4-0.7-0.3c0.1-0.6,0-1.2-0.5-1.3c0,0,0-0.1,0.1-0.1c0.1-0.2,0.1-0.4,0-0.6
	c0.6-0.2,1.1-0.6,0.7-1.1c0.2-0.1,0.3-0.3,0.4-0.5c0.1-0.4-0.1-0.7-0.4-0.8c0.3-0.5-0.2-1.2-0.7-1.4c0.1-0.3,0.2-0.6,0.1-1
	c-0.1-0.3-0.3-0.4-0.5-0.5c0-0.5-0.2-1.1-0.7-1.1c-0.4,0-0.7,0.1-1,0.3c0-0.5-0.3-0.9-0.7-1.1c0.3-0.5,0.3-1.1-0.2-1.3
	c0.3-0.5,0-1.2-0.5-1.4c0.1-0.1,0.2-0.2,0.3-0.4c0.1-0.3,0.1-0.5-0.1-0.7c0.1-0.1,0.3-0.2,0.4-0.3c0.2-0.3,0.1-0.8-0.2-1
	c0.1-0.1,0.1-0.3,0.1-0.4c-0.1-0.2-0.3-0.4-0.5-0.5c-0.2-0.1-0.4-0.2-0.7-0.2c-0.1,0-0.2,0-0.2,0.1c-0.1-0.1-0.3-0.2-0.6-0.2
	c-0.6,0.1-0.7,0.5-0.8,1c-0.1-0.1-0.2-0.2-0.4-0.2c0.1-0.2,0-0.5-0.1-0.7c-0.2-0.3-0.5-0.4-0.8-0.4c0-0.1,0-0.2,0-0.3
	c-0.1-0.3-0.3-0.5-0.5-0.7c0.2-0.1,0.4-0.2,0.5-0.4c0.2-0.4-0.2-1-0.6-1.2c0.1-0.6-0.4-1.3-1-1.1c0-0.1,0-0.3-0.1-0.4
	c-0.1-0.1-0.2-0.2-0.3-0.3c0.2-0.1,0.3-0.2,0.4-0.3c0.2-0.3,0.2-0.6,0-0.9c0.1-0.1,0.2-0.2,0.3-0.4c0.1-0.4-0.1-0.8-0.4-1
	c0.1-0.1,0.1-0.1,0.2-0.3c0.1-0.3,0-0.7-0.2-0.9c0.4-0.5,0.1-1.3-0.4-1.6c-0.6-0.4-1.4,0.2-1.8,0.9c-0.2-0.2-0.4-0.3-0.6-0.3
	c0-0.2,0-0.3-0.1-0.5c-0.1-0.2-0.3-0.3-0.5-0.3c0-0.3-0.1-0.6-0.4-0.9c-0.4-0.3-0.9-0.2-1.3,0.1c-0.1-0.2-0.2-0.3-0.4-0.4
	c-0.4-0.1-0.9,0.1-1.1,0.5c-0.1-0.2-0.3-0.3-0.5-0.4c0.1-0.2,0.1-0.4-0.1-0.5c-0.1-0.2-0.3-0.2-0.5-0.2c0,0,0-0.1,0-0.2
	c0-0.2-0.2-0.4-0.4-0.4c0.1-0.2,0.2-0.4,0.2-0.7c0-0.3-0.2-0.5-0.4-0.6c0.1-0.2,0.1-0.4,0.1-0.6c0-0.1-0.1-0.3-0.2-0.4
	c0,0,0.1-0.1,0.1-0.2c0.1-0.2-0.1-0.5-0.2-0.6c-0.2-0.2-0.4-0.3-0.6-0.4c-0.2,0-0.3,0-0.5,0.1c-0.1-0.4-0.3-0.7-0.7-0.9
	c-0.5-0.2-0.9,0-1.1,0.4c-0.3-0.2-0.7-0.2-1,0c-0.1-0.3-0.3-0.5-0.6-0.5c-0.5,0-0.6,0.3-0.8,0.7c-0.1-0.1-0.3-0.1-0.5-0.1
	c0-0.3,0-0.6-0.1-0.8c-0.2-0.3-0.4-0.3-0.6-0.2c-0.2-0.9-1.3-1.2-1.9-0.5c-0.2-0.1-0.3-0.2-0.5-0.2c-0.3,0-0.5,0.2-0.7,0.5
	c-0.1-0.1-0.2-0.2-0.4-0.2c-0.4-0.1-0.8,0.1-1.1,0.4c-0.1-0.1-0.3-0.1-0.5-0.1c-0.2,0-0.5,0.2-0.6,0.4c-0.2-0.2-0.4-0.2-0.6-0.1
	c-0.2,0.1-0.3,0.2-0.4,0.4c0,0,0,0-0.1-0.1c-0.2-0.2-0.4-0.2-0.6-0.1c-0.1-0.2-0.2-0.4-0.4-0.5c-0.4-0.2-0.8,0-1,0.3
	c-0.3-0.3-0.6-0.4-1-0.2c-0.5,0.2-0.6,0.6-0.5,1c-0.6,0.3-1,0.9-0.8,1.5c-0.1,0-0.1,0-0.2,0c-0.1-0.3-0.4-0.4-0.7-0.4
	c-0.3,0-0.5,0.2-0.6,0.4c-0.1-0.1-0.3-0.2-0.5-0.3c-0.3-0.1-0.5,0-0.7,0.1c-0.1-0.3-0.3-0.5-0.6-0.6c-0.3-0.1-0.6-0.1-0.9,0.1
	c0-0.1-0.1-0.2-0.2-0.3c-0.3-0.3-0.7-0.2-1.1-0.1c0-0.2-0.1-0.4-0.3-0.6c-0.3-0.3-0.8-0.3-1.1,0c0-0.2,0-0.3-0.1-0.5
	c-0.1-0.2-0.2-0.2-0.3-0.3c0.1-0.1,0.1-0.3,0.1-0.4c0-0.1,0-0.2-0.1-0.2c0.1-0.1,0.2-0.2,0.3-0.3c0.2-0.3,0.1-0.6,0-0.9
	c-0.2-0.5-0.7-0.7-1.2-0.5c0-0.3-0.1-0.5-0.3-0.7c-0.2-0.2-0.5-0.4-0.8-0.3c0-0.3,0-0.5-0.2-0.7c-0.2-0.3-0.6-0.4-1-0.3
	c0-0.4-0.4-0.7-0.9-0.8c0.2-0.3,0.3-0.8,0-1.1c-0.3-0.3-0.7-0.5-1.1-0.4c0.1-0.2,0.1-0.4,0.1-0.6c0-0.3-0.3-0.6-0.6-0.7
	c0.1-0.2,0.2-0.5,0.2-0.7c0-0.3-0.2-0.5-0.4-0.6c0.2-0.3,0.2-0.7-0.1-1c-0.2-0.2-0.5-0.3-0.8-0.2c0-0.4-0.4-0.7-0.9-0.8
	c-0.5-0.1-1.1,0.1-1.3,0.5c0,0-0.1,0-0.1-0.1c-0.2-0.1-0.4,0-0.6,0.1c-0.2,0.2-0.4,0.5-0.4,0.8c-0.2,0-0.4,0.1-0.6,0.2
	c-0.1-0.4-0.4-0.7-0.8-0.8c-0.4-0.1-0.8,0-1,0.3c-0.2-0.4-0.5-0.6-1-0.6c-0.3,0-0.6,0.1-0.8,0.3c-0.2-0.2-0.5-0.2-0.8-0.1
	c0-0.3-0.1-0.5-0.3-0.7c-0.1-0.1-0.2-0.2-0.3-0.2c-0.1-0.8-1-1.4-1.7-1.1c0-0.2,0-0.4-0.2-0.5c-0.2-0.2-0.4-0.2-0.6-0.2
	c0-0.4-0.1-0.8-0.5-1c-0.5-0.3-1,0-1.4,0.4c-0.1-0.2-0.4-0.4-0.6-0.5c-0.3-0.1-0.5,0-0.6,0.1c-0.2-0.2-0.5-0.4-0.8-0.2
	c-0.2,0.1-0.6,0.4-0.7,0.6c-0.2-0.1-0.4,0-0.6,0.1c-0.1-0.3-0.3-0.6-0.5-0.7c0,0,0,0,0,0c0.1-0.4-0.1-0.8-0.5-0.9
	c-0.1,0-0.3,0-0.4,0c-0.1-0.4-0.3-0.8-0.8-1c-0.4-0.1-0.8,0.1-1.1,0.3c-0.4,0.3-0.8,0.8-0.8,1.4c-0.2,0-0.3,0-0.5,0.1
	c-0.5,0.2-0.8,0.8-0.8,1.3c-0.2-0.1-0.4-0.1-0.6-0.1c-0.4,0.1-0.6,0.5-0.6,0.8c-0.3-0.2-0.7-0.1-1,0c-0.9-0.8-2.2,1.1-1.1,1.8
	c0,0.1-0.1,0.2-0.1,0.3c0,0.2,0.1,0.4,0.3,0.5c-0.1,0.1-0.3,0.3-0.3,0.5c-0.4-0.3-1.1,0-1.4,0.5c-0.2-0.1-0.4-0.1-0.6-0.1
	c0-0.6-0.4-1.2-1.1-1.2c-0.9,0-1.2,0.7-1.6,1.3c-0.4-0.4-1-0.5-1.3,0c-0.2-0.6-0.6-0.9-1.3-0.8c-0.5,0.1-0.9,0.6-1,1
	c-0.3-0.3-0.6-0.4-1-0.3c0-0.2-0.1-0.3-0.2-0.4c-0.1-0.1-0.3-0.2-0.4-0.2c0-0.4-0.2-0.8-0.6-0.9c-0.2-0.1-0.4-0.1-0.5,0c0,0,0,0,0,0
	c-0.2-0.5-0.4-1.3-1-1.3c-0.6,0-1.2,0.5-1.5,1.1c-0.1,0-0.1,0-0.2,0c-0.2,0-0.5,0.1-0.7,0.2c-0.2-0.3-0.6-0.4-1.1-0.2
	c-0.2,0.1-0.4,0.3-0.5,0.5c-0.2-0.1-0.5-0.1-0.7,0c-0.2-0.6-1-1-1.5-0.5c-0.4,0.3-0.3,1,0,1.4c0,0,0,0-0.1,0
	c-0.2,0.1-0.3,0.2-0.4,0.4c-0.4-0.3-1-0.1-1.3,0.3c-0.5-0.1-1,0.1-1.1,0.6c-0.2,0.5,0,0.9,0.5,1.1c0,0,0,0.1,0,0.1
	c-0.6-0.2-1.4,0.3-1.4,1c0,0,0,0,0,0c-0.2,0-0.4,0.1-0.5,0.2c-0.2-0.2-0.5-0.3-0.8-0.1c-0.4,0.2-0.5,0.6-0.5,1c-0.1,0-0.1,0-0.2-0.1
	c-0.2,0-0.3,0-0.4,0.1c-0.2-0.2-0.5-0.3-0.8-0.2c-0.3,0.1-0.5,0.3-0.7,0.5c-0.1,0-0.2-0.1-0.3-0.1c-0.2,0-0.4,0.1-0.6,0.2
	c-0.2-0.5-1.1-0.4-1.3,0.2c-0.2-0.1-0.5-0.1-0.7,0.1c-0.2,0.1-0.3,0.3-0.3,0.5c-0.5-0.1-1,0-1.2,0.5c-0.2,0.4,0.1,1,0.4,1.4
	c-0.1,0.1-0.2,0.3-0.2,0.5c-0.2,0.1-0.4,0.3-0.5,0.6c-0.2,0-0.4,0.1-0.5,0.3c-0.1,0.3,0.1,0.6,0.3,0.8c-0.1,0.1-0.2,0.3-0.2,0.5
	c-0.2-0.2-0.5-0.3-0.7-0.1c-0.3,0.2-0.5,0.4-0.5,0.8c0,0.1,0,0.3,0,0.4c-0.3-0.1-0.5,0-0.7,0.2c-0.2-0.3-0.6-0.5-0.9-0.2
	c0,0,0,0,0,0c-0.3-0.1-0.6,0.1-0.7,0.4c-0.2,0.4,0,0.8,0.4,1c0,0,0,0,0,0c0,0.1,0,0.2,0,0.3c0.1,0.3,0.3,0.6,0.6,0.7
	c-0.1,0.4-0.1,0.8,0.1,1.2c-0.1,0-0.1,0-0.1,0c-0.2-0.4-0.8-0.8-1.2-0.5c-0.2,0.2-0.3,0.7-0.2,1c-0.3,0.1-0.6,0.3-0.7,0.6
	c-0.1,0.4,0.2,0.8,0.5,1c0,0,0,0,0,0c0,0,0,0.1,0,0.1c0,0.4,0.3,0.7,0.6,0.8c0,0,0,0,0,0c0,0.2,0.1,0.4,0.3,0.6
	c-0.3,0.4-0.4,0.8-0.2,1.2l0,0c-0.3,0.1-0.5,0.5-0.5,0.8c0,0.3,0.3,0.6,0.5,0.8c0.1,0.1,0.2,0.2,0.4,0.3c-0.2,0.5-0.2,1,0.5,1.2
	c0,0.2,0.1,0.4,0.3,0.5c-0.1,0.1-0.2,0.3-0.2,0.5c-0.1-0.1-0.2-0.2-0.4-0.3c-0.2-0.1-0.5-0.2-0.7-0.1c-0.1-0.2-0.2-0.4-0.3-0.6
	c-0.3-0.3-0.7-0.4-1-0.1c0-0.1-0.1-0.2-0.1-0.2c-0.3-0.3-0.7-0.3-1,0c-0.2-0.4-0.5-0.6-0.9-0.6c0-0.2,0-0.5-0.2-0.7
	c-0.2-0.3-0.7-0.6-1-0.4c-0.1-0.3-0.4-0.5-0.7-0.5c-0.4,0-1,0.2-1.2,0.6c-0.1-0.1-0.2-0.2-0.3-0.2c-0.6-0.2-1.2,0.3-1.3,0.9
	c-0.1-0.1-0.2-0.1-0.4-0.1c-0.4,0-0.6,0.3-0.7,0.6c-0.4,0-0.7,0.2-0.8,0.5c-0.1,0.3,0,0.5,0.2,0.7c-0.4,0.2-0.7,0.6-0.7,0.9
	c-0.2-0.2-0.5-0.3-0.8-0.1c-0.1-0.2-0.2-0.3-0.3-0.5c-0.3-0.2-0.6-0.1-0.9,0c-0.1-0.1-0.1-0.1-0.2-0.1c-0.2-0.1-0.6-0.1-0.8,0.1
	c-0.1-0.1-0.2-0.2-0.4-0.2c-0.4,0-0.6,0.3-0.7,0.6c-0.1,0.3-0.1,0.7,0.1,1c0,0.1,0.1,0.2,0.2,0.2c0,0.1-0.1,0.2-0.1,0.2
	c-0.1,0.5,0.3,0.7,0.7,0.7c0.1,0.3,0.3,0.5,0.6,0.6c0,0,0.1,0,0.1,0c0,0.4,0.4,0.6,0.7,0.6c0,0.2,0.1,0.3,0.2,0.4
	c-0.1,0.1-0.2,0.2-0.2,0.3c0,0.1,0,0.2,0.1,0.3c-0.2,0-0.3,0.1-0.5,0.3c0,0-0.1-0.1-0.1-0.1c-0.1-0.1-0.3-0.1-0.4-0.1
	c-0.1,0-0.1,0.1-0.2,0.1c0-0.1-0.1-0.2-0.2-0.3c-0.2-0.2-0.5-0.1-0.7,0c-0.2,0.1-0.3,0.3-0.4,0.5c-0.1-0.2-0.3-0.3-0.5-0.3
	c-0.3,0-0.5,0.3-0.6,0.6c-0.1-0.1-0.2-0.1-0.4-0.1c-0.1,0-0.2,0-0.3,0.1c0-0.3,0-0.6-0.3-0.7c-0.2-0.1-0.4,0-0.6,0.1
	c-0.1,0-0.1,0.1-0.1,0.1c0-0.1-0.1-0.2-0.1-0.3c-0.2-0.2-0.5-0.3-0.8-0.2c0-0.2-0.1-0.3-0.3-0.4c-0.1-0.1-0.3-0.1-0.5,0
	c-0.2-0.3-0.4-0.6-0.8-0.4c-0.3,0.2-0.4,0.4-0.4,0.7c-0.1,0-0.1,0-0.2,0c-0.2,0.1-0.3,0.2-0.3,0.4c-0.2,0-0.4-0.1-0.6,0.1
	c-0.2,0.1-0.3,0.2-0.3,0.4c-0.1,0.3,0.1,0.6,0.4,0.7c-0.1,0.1-0.2,0.3-0.1,0.5c0,0.2,0.2,0.3,0.4,0.4c-0.2,0.2-0.4,0.4-0.5,0.7
	c-0.1,0.2-0.1,0.4,0,0.6c0.2,0.2,0.4,0.2,0.7,0.1c0.1,0.3,0.4,0.4,0.7,0.4c0,0,0,0,0,0c0.1,0.2,0.2,0.3,0.3,0.4
	c-0.2,0.1-0.4,0.3-0.5,0.5c-0.2-0.2-0.6-0.3-0.9-0.1c-0.2,0.1-0.3,0.2-0.4,0.3c-0.3-0.1-0.7-0.1-1,0.2c-0.3,0.3-0.2,0.8,0,1.3
	c-0.1,0-0.1,0-0.2,0c-0.1-0.3-0.4-0.6-0.8-0.4c-0.4,0.2-0.5,0.5-0.5,0.9c-0.5-0.1-1,0-1.3,0.3c-0.4,0.5,0.3,1,0.7,1.2
	c0,0.1,0,0.1-0.1,0.2c0,0.4,0.2,0.6,0.6,0.7c0,0,0,0.1,0,0.1c0,0.1,0,0.2,0.1,0.3c-0.1,0-0.3,0.1-0.4,0.2c-0.2,0.2-0.1,0.5,0.1,0.7
	c-0.1,0-0.3,0.1-0.3,0.2c-0.4-0.2-1-0.1-1.2,0.4c-0.1,0.2-0.1,0.4,0,0.6c0.1,0.1,0.1,0.2,0.3,0.2c-0.1,0.1-0.1,0.3-0.1,0.4
	c0,0.4,0.3,0.8,0.7,0.7c0,0.4,0.3,0.6,0.7,0.6c0,0.1,0,0.1,0,0.2c0,0.2,0.1,0.3,0.2,0.4c-0.1,0.1-0.3,0.2-0.3,0.4c0,0,0,0.1,0,0.1
	c-0.2,0-0.4,0.1-0.5,0.2c-0.2,0.2-0.3,0.6-0.3,0.9c0,0-0.1,0-0.2,0c0-0.3-0.1-0.6-0.5-0.8c-0.3-0.1-0.6,0-0.8,0.1
	c-0.1-0.3-0.3-0.5-0.5-0.6c-0.2-0.1-0.4,0-0.5,0.1c-0.1-0.3-0.3-0.5-0.5-0.5c-0.4-0.1-0.7,0.1-0.9,0.4c-0.2-0.3-0.6-0.4-0.9-0.2
	c-0.1-0.1-0.1-0.2-0.3-0.3c-0.2-0.1-0.4,0-0.5,0.1c-0.1,0.1-0.1,0.1-0.2,0.2c-0.4-0.2-0.9,0-1.1,0.4c-0.1,0.2-0.1,0.5,0,0.7
	c0.1,0.2,0.3,0.3,0.5,0.3c-0.1,0.1-0.1,0.3-0.1,0.5c0,0.2,0.2,0.3,0.3,0.4c-0.2,0.2-0.4,0.4-0.4,0.7c0,0.1,0,0.1,0,0.2
	c-0.1-0.1-0.2-0.1-0.3-0.1c-0.3,0-0.4,0.2-0.5,0.4c-0.1,0.3-0.1,0.7,0.1,1c-0.1,0.1-0.1,0.1-0.2,0.2c-0.2-0.2-0.4-0.3-0.7-0.3
	c-0.3,0-0.4,0.3-0.4,0.5c0,0.3,0,0.5,0.1,0.8c-0.1,0-0.2,0.1-0.3,0.2c0,0,0,0,0,0c-0.1-0.1-0.3-0.1-0.4-0.1
	c-0.1-0.3-0.2-0.7-0.6-0.7c-0.4,0-0.8,0.2-0.9,0.5c-0.2-0.1-0.4-0.2-0.7,0c-0.4,0.4-0.3,0.9-0.2,1.4c-0.1,0-0.1,0-0.2,0.1
	c-0.1-0.3-0.3-0.5-0.6-0.6c-0.2-0.1-0.3-0.1-0.4,0c-0.1-0.3-0.4-0.4-0.7-0.3c-0.1,0-0.3,0.1-0.4,0.2c-0.5-0.5-1.2-0.3-1.5,0.2
	c-0.1,0.2-0.2,0.6,0,0.8c0.2,0.3,0.5,0.4,0.8,0.4c0,0.1,0,0.2-0.1,0.3c0,0.3,0.2,0.5,0.4,0.5c0,0,0,0.1-0.1,0.1
	c-0.1-0.1-0.3-0.1-0.5,0c-0.2,0.1-0.4,0.3-0.4,0.5c0,0-0.1,0-0.1,0c-0.2,0-0.4,0.1-0.6,0.3c-0.1,0.1-0.2,0.2-0.2,0.4
	c0,0-0.1,0-0.1,0c-0.2,0-0.5,0.1-0.7,0.3c-0.2,0.1-0.3,0.4-0.2,0.6c0,0.1,0,0.1,0.1,0.1c-0.1,0-0.1,0-0.2,0.1
	c-0.2,0.1-0.5,0.3-0.5,0.6c0,0.2,0.2,0.4,0.4,0.4c0.1,0,0.2,0,0.3,0c-0.1,0.2-0.1,0.4,0,0.6c0.1,0.1,0.2,0.2,0.3,0.3
	c-0.3,0.1-0.6,0.4-0.6,0.8c0,0.5,0.4,0.8,0.9,0.8c-0.1,0.1-0.2,0.2-0.3,0.4c-0.4-0.1-0.8,0-0.9,0.5c-0.1,0.4,0.1,0.6,0.4,0.8
	c-0.4,0.1-0.6,0.4-0.7,0.8c0,0.2,0.1,0.5,0.3,0.6c0.2,0.1,0.5,0.2,0.7,0.1c0,0.1,0.1,0.1,0.1,0.1c0.1,0.1,0.3,0.2,0.4,0.2
	c0,0.1-0.1,0.2-0.1,0.3c0,0.4,0.2,0.6,0.5,0.7c0,0,0,0,0,0.1c-0.1,0.2-0.1,0.4,0,0.6c0.3,0.4,0.9,0.4,1.3,0.2
	c0.1,0.1,0.2,0.1,0.3,0.2c0.4,0.1,1,0,1.3-0.3c0.1,0.2,0.2,0.3,0.3,0.4c0.3,0.2,0.7,0.1,1-0.1c0.2,0.3,0.6,0.4,0.9,0.2
	c0,0,0,0.1,0,0.1c-0.1,0-0.3,0-0.4,0c-0.3,0.1-0.5,0.4-0.6,0.6c-0.1,0-0.1-0.1-0.2-0.1c-0.2,0-0.4,0.1-0.5,0.2
	c-0.2-0.2-0.4-0.4-0.7-0.3c0,0-0.1,0.1-0.2,0.1c-0.1-0.3-0.4-0.4-0.7-0.3c-0.2,0.1-0.4,0.2-0.5,0.4c0,0.1-0.1,0.1-0.1,0.2
	c-0.3,0-0.7,0.3-0.8,0.6c-0.1,0.2-0.1,0.5,0.1,0.7c0.1,0.2,0.3,0.3,0.6,0.3c0,0.1,0,0.2,0,0.3c0.1,0.3,0.4,0.5,0.7,0.5
	c0,0.1,0,0.2,0,0.2c0,0.1,0.1,0.2,0.1,0.2c-0.4,0-0.8,0.3-0.9,0.7c0,0,0,0,0,0c-0.2,0-0.3,0.1-0.4,0.2c0,0,0,0.1-0.1,0.1
	c-0.5-0.1-1.2,0.1-1.3,0.7c-0.1,0.3,0,0.5,0.2,0.6c-0.3,0.2-0.6,0.5-0.6,0.9c0,0.2,0.1,0.5,0.3,0.6c0.2,0.1,0.5,0.1,0.7,0.1
	c0,0.3,0.1,0.5,0.3,0.7c0.3,0.3,0.6,0.2,0.8,0c0,0,0.1,0.1,0.1,0.1c0.1,0.1,0.2,0.1,0.4,0.1c-0.1,0.2-0.1,0.5,0,0.7
	c0.2,0.4,0.6,0.4,1,0.4c-0.1,0.2-0.1,0.4-0.1,0.6c0.1,0.4,0.4,0.5,0.7,0.5c0,0.1,0,0.2,0,0.3c-0.6-0.1-1.3-0.2-1.7,0.4
	c-0.3,0.5,0.1,0.9,0.5,1.1c-0.2,0.2-0.4,0.5-0.3,0.8c0.1,0.4,0.6,0.5,0.9,0.4c0,0.1,0.1,0.3,0.2,0.4c0.2,0.2,0.6,0.2,0.8,0.1
	c0.2,0.2,0.4,0.5,0.7,0.5c0.2,0,0.4-0.1,0.6-0.3c0,0.1,0.1,0.3,0.3,0.4c0.4,0.3,0.9,0.2,1.3,0c0,0,0,0,0,0c0.1,0.1,0.2,0.2,0.4,0.2
	c0.4,0.1,0.7-0.1,0.8-0.4c0,0,0.1,0.1,0.2,0.1c-0.2,0.2-0.3,0.5-0.3,0.7c-0.4,0.2-0.9,0.4-0.8,1c0,0.1,0.1,0.2,0.1,0.3
	c-0.1,0-0.2,0.1-0.2,0.2c-0.2,0.2-0.2,0.4-0.2,0.7c0,0.2,0.2,0.4,0.4,0.5c0.1,0.1,0.3,0,0.4,0c0,0.3,0.1,0.6,0.4,0.7
	c0.3,0.3,0.8,0,1-0.2c0,0,0,0,0,0c0.2,0.1,0.6,0.1,0.8,0c0.3-0.1,0.6-0.3,0.7-0.5c0-0.1,0-0.1,0-0.2c0.3,0,0.5-0.2,0.7-0.5
	c0.4,0.1,1.1-0.4,1.3-0.9c0,0,0,0,0.1,0c-0.1,0.3,0,0.6,0.3,0.9c0.4,0.3,0.8,0.3,1.1,0c0.1,0.5,0.7,0.9,1.2,0.5
	c0.2-0.1,0.3-0.4,0.3-0.6c0.2,0.1,0.4,0,0.6-0.1c0.2-0.2,0.4-0.5,0.4-0.7c0,0,0,0,0,0c0.1,0.1,0.3,0.2,0.4,0.2
	c-0.1,0.2,0,0.4,0.2,0.6c0.3,0.3,0.7,0.4,1,0.3c0,0,0,0.1,0.1,0.1c0.2,0.2,0.4,0.3,0.7,0.3c0,0.2,0,0.4,0.2,0.6c0,0,0.1,0.1,0.1,0.1
	c0,0.4,0.1,0.7,0.5,0.9c0.2,0.1,0.4,0.1,0.5,0.1c0,0.1-0.1,0.2-0.1,0.2c0,0.2,0,0.4,0.2,0.5c0.1,0.1,0.1,0.1,0.2,0.1
	c-0.3,0.2-0.6,0.5-0.4,0.9c0.2,0.4,0.6,0.4,1,0.3c0,0.4,0.3,0.7,0.7,0.8c0.4,0.1,0.7-0.2,0.8-0.6c0,0,0,0,0,0
	c0.2,0.2,0.5,0.2,0.8,0.1c0,0.1,0,0.2,0,0.3c0,0.2,0.1,0.3,0.1,0.4c0.1,0.2,0.3,0.4,0.6,0.4c0.4,0,0.7-0.2,1-0.5
	c0.2,0,0.4,0,0.6-0.2c0.2-0.1,0.4-0.4,0.4-0.6c0-0.2,0-0.3-0.1-0.5c0,0,0.1,0,0.1,0c0.1,0,0.2-0.1,0.3-0.2c0.4,0.3,0.9,0.4,1.3,0.1
	c0.3-0.2,0.5-0.6,0.4-1c0.3,0,0.6,0,0.8-0.2c0.2-0.1,0.3-0.3,0.4-0.5c0.1-0.2,0-0.4,0-0.6c0.1,0,0.3,0,0.4-0.1
	c0.3-0.1,0.6-0.3,0.7-0.6c0.2,0.2,0.5,0.3,0.8,0.3c0.1,0,0.3-0.1,0.3-0.2c0.3,0.2,0.6,0.2,0.9,0c0.1,0.2,0.2,0.4,0.4,0.5
	c0.7,0.5,1.6,0,2.2-0.5c0,0.2,0,0.3,0,0.5c0.1,0.7,0.7,0.9,1.2,0.7c0,0.3,0,0.6,0.2,0.8c0.1,0.2,0.3,0.3,0.6,0.3
	c-0.1,0.1-0.2,0.2-0.3,0.3c-0.3,0.3-0.4,0.6-0.3,1c0,0.1,0,0.1,0.1,0.2c-0.5,0.1-0.9,0.4-1.2,0.7c-0.2,0.3-0.4,0.7-0.3,1
	c0.1,0.3,0.4,0.5,0.7,0.7c-0.2,0.2-0.3,0.4-0.3,0.7c0,0.3,0,0.5,0.2,0.7c-0.6,0.1-1.2,0.7-1.4,1.1c-0.3,0.4-0.5,1-0.2,1.5
	c0.4,0.6,1.3,0.7,2,0.6c-0.2,0.3-0.2,0.6-0.1,0.9c0,0.1,0,0.1,0.1,0.1c-0.9,0.1-1.6,1-1.5,2c0,0.5,0.2,1.1,0.7,1.3
	c0.4,0.2,0.9,0.1,1.4-0.2c0.2,1,1.3,1.6,2.1,1c0.1,0.1,0.2,0.1,0.4,0.2c0.5,0.1,1,0.1,1.5-0.2c0,0.1,0.1,0.1,0.1,0.1
	c0.2,0.2,0.4,0.4,0.7,0.5c-0.6,0.3-1.1,0.9-0.8,1.7c0.1,0.4,0.4,0.6,0.8,0.7c0.3,0.1,0.6,0,0.9-0.2c0.1,0.5,0.4,0.9,1,1
	c0.5,0.1,1.1-0.1,1.5-0.5c0.2,1,1.2,1.2,2.1,0.7c0.3-0.2,0.6-0.4,0.8-0.7c0.2,0.2,0.4,0.4,0.7,0.5c0.5,0.1,1-0.2,1.3-0.5
	c0.4-0.3,0.6-0.7,0.7-1.2c0.3,0,0.6,0,0.9-0.2c0.1-0.1,0.2-0.2,0.3-0.3c0,0,0.1,0.1,0.1,0.1c0.2,0.1,0.4,0.1,0.6,0
	c0.1,0,0.2-0.1,0.3-0.2c0.2,0.3,0.5,0.4,0.9,0.3c0.3,0,0.6-0.2,0.7-0.5c0.2,0.2,0.5,0.3,0.8,0.2c0.3,0,0.5-0.3,0.6-0.5
	c0.1-0.2,0.1-0.5,0-0.8c-0.1-0.2-0.4-0.3-0.7-0.4c0.1-0.1,0.1-0.1,0.1-0.2c0.3-0.4,0.2-0.8-0.1-1.1c0.3,0,0.5-0.2,0.7-0.4
	c0,0.4,0.2,0.8,0.6,1c0.5,0.2,1,0.1,1.4-0.2c0.6,0.5,1.3,0.6,2,0c0.4-0.3,0.8-1.1,0.3-1.5c0.3,0,0.6-0.1,0.9-0.3
	c0.7-0.4,0.5-1.2,0.1-1.8c1.7,0.6,3.5,1.1,5.3,1.4c3.5,0.6,7.6,1.1,9.6,4.5c1,1.7,1.1,3.8,1,5.7c-0.1,1-0.3,1.9-0.4,2.8
	c-0.2,1-0.2,2-0.1,3c0,2.2,0,4.2-1,6.2c-0.8,1.6-2,2.9-3.5,3.9c-2.9,1.9-6.4,2.6-9.8,3.1c-4,0.6-8,0.7-12,1.2
	c-3.9,0.5-7.6,1.4-11.4,2.2c-1.6,0.3-3.3,0.5-4.9,0.6c-1,0.1-2.3,0.2-3.1,0.9c-0.1,0.1-0.1,0.1,0,0.2c0,0.1,0,0.3,0.2,0.3
	c19.1,0,38.3,0,57.4,0c15.4,0,30.9,0,46.3,0c0.1,0.1,0.1,0.1,0.2,0.2c0.2,0.2,0.4-0.1,0.3-0.2c0.1-0.1,0-0.3-0.1-0.3
	c-0.1,0-0.1,0-0.2,0c-0.5-0.4-1-0.7-1.6-0.9c-0.9-0.3-1.9-0.3-2.9-0.5c-0.9-0.2-1.8-0.6-2.6-0.9c-1-0.3-2.1-0.4-3.2-0.5
	c-2.3-0.2-4.5,0-6.8,0c-1.1,0-2.3,0-3.4-0.2c-1.1-0.2-2.2-0.6-3.3-0.9c-2-0.6-4-0.7-6-1.4c-1-0.4-1.8-0.9-2.7-1.5
	c-0.9-0.6-1.8-1.2-2.6-1.9c-1.5-1.4-2.7-3.5-3.6-5.4c-0.9-1.9-1.3-4-1.5-6.1c-0.2-2.1-0.1-4.2,0.2-6.4c0.1-1,0.3-1.9,0.4-2.9
	c0.3,0.1,0.6,0.1,1-0.1c-0.1,0.4,0,0.8,0.4,0.9c0.5,0.1,1-0.3,1.4-0.5c0,0.2,0,0.4,0.2,0.5c0.2,0.2,0.5,0.3,0.7,0.2
	c0.2,0,0.4-0.1,0.6-0.3c0,0.3,0.1,0.6,0.3,0.7c0.3,0.2,0.6,0.2,0.9,0c0,0.5,0.3,0.8,0.9,0.8c0.3,0,0.6-0.1,0.8-0.3
	c0.1,0.2,0.3,0.4,0.6,0.5c0,0,0,0,0.1,0c-0.2,0.4-0.3,0.8-0.3,1.2c0.1,0.7,0.8,0.6,1.3,0.4c0,0.3,0,0.6,0.3,0.7c0.3,0.1,0.7,0,1-0.2
	c0.3-0.2,0.6-0.4,0.7-0.8c0.1-0.2,0-0.4-0.1-0.5c0.1-0.2,0.2-0.4,0.3-0.6c0-0.1,0-0.2,0-0.2c0.4,0.1,0.8-0.1,1.1-0.6
	c0-0.1,0.1-0.2,0.1-0.3c0,0.1,0.1,0.1,0.2,0.2c0.2,0.1,0.5,0.1,0.8,0c0.1,0,0.2-0.1,0.3-0.1c0.1,0.2,0.2,0.3,0.4,0.3
	c0.3,0,0.6-0.1,0.8-0.3c0.3-0.3,0.5-0.8,0.3-1.2c0.4-0.1,0.6-0.5,0.8-0.9c0.2,0,0.4-0.1,0.5-0.2c0.1-0.1,0.2-0.1,0.2-0.2
	c0,0.2,0.1,0.3,0.2,0.4c0.3,0.2,0.7,0.1,1,0.1c0.2,0,0.4-0.1,0.5-0.2c0.1,0.4,0.6,0.4,0.9,0.4c0.2,0,0.4-0.1,0.5-0.3
	c0.1,0.4,0.4,0.7,1,0.7c0.1,0,0.2,0,0.3-0.1c-0.1,0.3,0,0.7,0.3,0.9c0.3,0.1,0.6,0.1,0.9-0.1c0.1,0.2,0.2,0.5,0.5,0.6
	c0.3,0.1,0.6,0.1,0.8-0.1c0.2-0.1,0.4-0.3,0.5-0.5c0.3,0.1,0.8-0.1,1-0.5c0.1,0.2,0.2,0.4,0.4,0.5c0.3,0.1,0.7,0,1-0.2
	c0.4-0.2,1-0.9,0.6-1.3c0.1-0.1,0.3-0.2,0.3-0.3c0.3,0.2,0.7,0,0.9-0.2c0.3-0.2,0.5-0.6,0.4-1c0.2,0,0.4,0,0.6,0.1
	c-0.2,0.2-0.4,0.4-0.3,0.7c0.1,0.1,0.2,0.2,0.3,0.3c0,0-0.1,0.1-0.1,0.1c-0.1,0.2-0.3,0.4-0.2,0.6c0,0,0,0,0,0
	c-0.5,0.2-0.8,0.6-0.9,1.1c0,0.6,0.4,0.7,0.9,0.6c0,0.2,0.2,0.5,0.4,0.6c0.3,0.2,0.7,0.1,1-0.1c0.1,0.1,0.2,0.2,0.4,0.3
	c0.2,0.1,0.5,0.1,0.7,0c0,0.3,0.1,0.6,0.5,0.7c0.1,0,0.2,0,0.3,0c-0.1,0.1-0.1,0.3,0.1,0.5c-0.3,0.1-0.6,0.5-0.6,0.9
	c-0.1,0.9,1,0.9,1.6,0.8c0.1,0.3,0.4,0.5,0.7,0.4c0.3,0,0.5-0.2,0.7-0.4c0.1,0.4,0.5,0.6,1,0.5c0,0,0.1,0,0.1,0
	c-0.1,0.4,0,0.8,0.3,1c0.3,0.2,0.7,0.1,1-0.1v0c0,0.7,0.7,0.8,1.3,0.6c0.4-0.1,0.6-0.4,0.8-0.7c0.5,0.1,0.9-0.3,1-0.8
	c0.4,0.2,0.9,0.2,1.3-0.2c0.3-0.3,0.4-0.7,0.3-1.1c0.3,0,0.5-0.2,0.6-0.4c0,0,0,0,0.1,0c0.3,0.2,0.7,0.2,1,0.1
	c0.1,0,0.3-0.1,0.4-0.2c0,0.2,0.2,0.4,0.4,0.5c0.3,0.1,0.6,0,0.9-0.2c0.3-0.2,0.5-0.5,0.6-0.8c0-0.1,0-0.3,0-0.4
	c0.5-0.4,0.2-1.7-0.3-2c0.3-0.4,0.2-0.9-0.1-1.3c0,0-0.1-0.1-0.1-0.1c0,0,0,0,0.1-0.1c0.3,0.5,0.8,0.8,1.4,0.6
	c0.2-0.1,0.4-0.2,0.5-0.4c1,0.5,1.7-1,1.3-1.7c0.2-0.2,0.3-0.4,0.4-0.7c0-0.3-0.2-0.6-0.5-0.7c-0.3-0.2-0.7-0.3-1-0.2
	c0-0.3-0.3-0.5-0.6-0.6c0.2-0.3,0.2-0.7-0.1-1c0,0,0,0,0-0.1c0.4-0.2,0.6-0.6,0.5-1c0.2-0.1,0.4-0.1,0.5-0.3
	c0.1,0.3,0.3,0.5,0.6,0.6c0.4,0.2,0.8,0.1,1.1-0.1c0.1,0.4,0.5,0.7,1,0.6c0.1,0,0.2,0,0.3-0.1c0,0.3,0.1,0.5,0.4,0.6
	c0.2,0.1,0.3,0.1,0.5,0c-0.1,0.8,1.5,0.9,2.1,0.5c0,0,0,0,0,0c0.9,0.4,2.5-0.1,2.2-1.3c0.1,0,0.3,0,0.4,0c0.3,0,0.6-0.2,0.8-0.4
	c0.2-0.3,0.2-0.6,0.2-0.9c0.2,0.1,0.3,0.1,0.5,0.1c0.7,0,1-0.6,1-1.2c0.2,0,0.4-0.1,0.6-0.2c0,0,0.1,0,0.1-0.1
	c0.1,0.2,0.3,0.3,0.5,0.4c0.4,0.2,0.8,0.1,1.1-0.1c0.4-0.2,1.1-0.9,1-1.4c0.1,0,0.1,0,0.2,0c0.7-0.2,0.9-0.9,0.7-1.5
	c0.4,0,0.8-0.2,1-0.5c0.2-0.3,0.1-0.6,0-0.9c-0.1-0.2-0.3-0.3-0.5-0.5c0.2-0.1,0.4-0.3,0.5-0.5c0.1,0.1,0.2,0.2,0.4,0.2
	c0.3,0,0.5-0.1,0.7-0.2c0.2-0.2,0.4-0.5,0.4-0.8c0.4,0,0.9-0.1,1.2-0.3c0.8-0.4,0.6-1.1,0-1.5c0.1-0.2,0.2-0.3,0.1-0.6
	c-0.1-0.4-0.4-0.7-0.8-0.7c0.1-0.2,0.2-0.4,0.1-0.6c-0.1-0.5-0.5-0.8-0.9-0.8c0.5-0.5,0.7-1.2,0.1-1.6c0.1-0.1,0.1-0.1,0.1-0.2
	c0.2-0.3,0-0.6-0.2-0.7c0,0,0.1,0,0.1,0c0.1-0.1,0.3-0.2,0.4-0.3c0.5,0.2,1.1-0.4,1-0.9c0.2,0.1,0.4,0.1,0.6,0.1
	c-0.1,0.3,0,0.6,0.3,0.7c0.2,0.1,0.5,0.1,0.7,0c0.3,1,1.9,0.5,1.9-0.5c0.3,0,0.6-0.2,0.8-0.4c0.2-0.2,0.3-0.4,0.2-0.7
	c0-0.2-0.1-0.3-0.2-0.4c0.1,0,0.2-0.1,0.2-0.1c0.2-0.1,0.2-0.4,0.1-0.5c0-0.1-0.1-0.2-0.2-0.3c0,0-0.1-0.1-0.1-0.1
	c0.2-0.2,0.3-0.4,0.4-0.7c0,0,0,0,0,0c0.2,0.2,0.6,0.2,0.8,0.1c0.2-0.1,0.3-0.2,0.4-0.3c0.2,0.2,0.7,0.3,0.9,0.1
	c0.3-0.2,0.4-0.5,0.4-0.9c0.8,0.2,1.9,0,1.6-1c0.1,0,0.1,0,0.2,0c0.6-0.2,0.6-0.8,0.6-1.3c0,0,0,0,0,0c0.1,0,0.1,0,0.2-0.1
	c0.3-0.2,0.4-0.5,0.4-0.7C481.8,152.4,481.7,152.1,481.5,151.9z M376.9,173.6c-1.1-0.2-2.3-0.2-3.5-0.2c-0.4,0-0.9-0.1-1.3-0.1
	c0.4-0.4,0.5-1.2,0.3-1.7c0,0,0,0,0-0.1c0.4-0.1,0.8-0.7,0.9-1.3c0.1,0.1,0.2,0.1,0.3,0.1c0.3,0,0.6-0.3,0.7-0.6
	c0.1-0.2,0.3-0.5,0.3-0.8c0.8,0.4,1.5-0.3,1.9-1c0.2,0.2,0.3,0.5,0.6,0.6c-0.4,0.4-0.7,1-0.4,1.5c0.2,0.4,0.6,0.4,0.9,0.2
	c0,0,0,0,0,0c0,0.1,0,0.1,0,0.2c0,0.3-0.1,0.5,0.2,0.8c0.5,0.5,1.2,0,1.6-0.3c0.1,0.2,0.2,0.3,0.4,0.4c0.4,0.2,0.8,0,1.1-0.2
	c0.3-0.2,0.5-0.4,0.6-0.7c0.1,0.1,0.3,0.3,0.5,0.3c0.3,0.1,0.6-0.1,0.8-0.3c0.1-0.2,0.2-0.4,0.3-0.6c0,0,0,0,0,0
	c0.6,0.1,1-0.4,1.1-0.9c0.4,0.2,0.9-0.1,1.1-0.6c0.4,0.6,0.8,1.3,1.3,1.9c0.4,0.5,0.9,0.9,1.1,1.5c0.2,0.6-0.3,1.3-0.6,1.8
	c-0.4,1,0.1,2,0.5,2.9c-0.4-0.3-0.8-0.5-1.2-0.7c-0.8-0.4-1.7-0.6-2.6-0.8c-1.3-0.2-2.5-0.5-3.7-0.8
	C379.2,174.1,378.1,173.8,376.9,173.6z M400.2,167.7c0,0-0.1,0-0.1,0C400.1,167.7,400.1,167.7,400.2,167.7z M398.1,167.6
	c0-0.2-0.1-0.4-0.1-0.7c0.2,0.1,0.4,0.1,0.7,0.1c0,0,0.1,0,0.1,0c0,0.2,0.1,0.4,0.3,0.6c0.2,0.2,0.5,0.2,0.7,0.1c0,0.2,0,0.3,0,0.4
	c0.1,0.5,0.6,0.5,1,0.4c0,0.7,0.8,0.7,1.3,0.6c-0.6,1.1-1.5,2.1-2.3,3.1c-0.4,0.5-0.9,1-1.4,1.5
	C399.1,171.6,398.5,169.6,398.1,167.6z M338.2,111.3C338.2,111.3,338.2,111.3,338.2,111.3C338.2,111.3,338.2,111.3,338.2,111.3z
	 M310.5,135.6C310.5,135.6,310.5,135.6,310.5,135.6L310.5,135.6C310.5,135.7,310.5,135.7,310.5,135.6
	C310.5,135.6,310.5,135.6,310.5,135.6C310.5,135.6,310.5,135.6,310.5,135.6C310.5,135.6,310.5,135.6,310.5,135.6z"/>
<polygon class="st2" points="340.3,211.4 351.4,222.8 463.3,223.2 451.4,210.4 442.1,209.8 444.2,211.9 "/>
</svg>
